%TF.GenerationSoftware,KiCad,Pcbnew,(5.1.6)-1*%
%TF.CreationDate,2020-06-18T13:16:41+05:30*%
%TF.ProjectId,breadboard powersupply,62726561-6462-46f6-9172-6420706f7765,V1*%
%TF.SameCoordinates,Original*%
%TF.FileFunction,Legend,Bot*%
%TF.FilePolarity,Positive*%
%FSLAX46Y46*%
G04 Gerber Fmt 4.6, Leading zero omitted, Abs format (unit mm)*
G04 Created by KiCad (PCBNEW (5.1.6)-1) date 2020-06-18 13:16:41*
%MOMM*%
%LPD*%
G01*
G04 APERTURE LIST*
%ADD10C,0.150000*%
%ADD11C,0.010000*%
G04 APERTURE END LIST*
D10*
X115626571Y-119458119D02*
X115674190Y-119600976D01*
X115721809Y-119648595D01*
X115817047Y-119696214D01*
X115959904Y-119696214D01*
X116055142Y-119648595D01*
X116102761Y-119600976D01*
X116150380Y-119505738D01*
X116150380Y-119124785D01*
X115150380Y-119124785D01*
X115150380Y-119458119D01*
X115198000Y-119553357D01*
X115245619Y-119600976D01*
X115340857Y-119648595D01*
X115436095Y-119648595D01*
X115531333Y-119600976D01*
X115578952Y-119553357D01*
X115626571Y-119458119D01*
X115626571Y-119124785D01*
X116150380Y-120124785D02*
X115483714Y-120124785D01*
X115674190Y-120124785D02*
X115578952Y-120172404D01*
X115531333Y-120220023D01*
X115483714Y-120315261D01*
X115483714Y-120410500D01*
X116102761Y-121124785D02*
X116150380Y-121029547D01*
X116150380Y-120839071D01*
X116102761Y-120743833D01*
X116007523Y-120696214D01*
X115626571Y-120696214D01*
X115531333Y-120743833D01*
X115483714Y-120839071D01*
X115483714Y-121029547D01*
X115531333Y-121124785D01*
X115626571Y-121172404D01*
X115721809Y-121172404D01*
X115817047Y-120696214D01*
X116150380Y-122029547D02*
X115626571Y-122029547D01*
X115531333Y-121981928D01*
X115483714Y-121886690D01*
X115483714Y-121696214D01*
X115531333Y-121600976D01*
X116102761Y-122029547D02*
X116150380Y-121934309D01*
X116150380Y-121696214D01*
X116102761Y-121600976D01*
X116007523Y-121553357D01*
X115912285Y-121553357D01*
X115817047Y-121600976D01*
X115769428Y-121696214D01*
X115769428Y-121934309D01*
X115721809Y-122029547D01*
X116150380Y-122934309D02*
X115150380Y-122934309D01*
X116102761Y-122934309D02*
X116150380Y-122839071D01*
X116150380Y-122648595D01*
X116102761Y-122553357D01*
X116055142Y-122505738D01*
X115959904Y-122458119D01*
X115674190Y-122458119D01*
X115578952Y-122505738D01*
X115531333Y-122553357D01*
X115483714Y-122648595D01*
X115483714Y-122839071D01*
X115531333Y-122934309D01*
X116150380Y-123410500D02*
X115150380Y-123410500D01*
X115531333Y-123410500D02*
X115483714Y-123505738D01*
X115483714Y-123696214D01*
X115531333Y-123791452D01*
X115578952Y-123839071D01*
X115674190Y-123886690D01*
X115959904Y-123886690D01*
X116055142Y-123839071D01*
X116102761Y-123791452D01*
X116150380Y-123696214D01*
X116150380Y-123505738D01*
X116102761Y-123410500D01*
X116150380Y-124458119D02*
X116102761Y-124362880D01*
X116055142Y-124315261D01*
X115959904Y-124267642D01*
X115674190Y-124267642D01*
X115578952Y-124315261D01*
X115531333Y-124362880D01*
X115483714Y-124458119D01*
X115483714Y-124600976D01*
X115531333Y-124696214D01*
X115578952Y-124743833D01*
X115674190Y-124791452D01*
X115959904Y-124791452D01*
X116055142Y-124743833D01*
X116102761Y-124696214D01*
X116150380Y-124600976D01*
X116150380Y-124458119D01*
X116150380Y-125648595D02*
X115626571Y-125648595D01*
X115531333Y-125600976D01*
X115483714Y-125505738D01*
X115483714Y-125315261D01*
X115531333Y-125220023D01*
X116102761Y-125648595D02*
X116150380Y-125553357D01*
X116150380Y-125315261D01*
X116102761Y-125220023D01*
X116007523Y-125172404D01*
X115912285Y-125172404D01*
X115817047Y-125220023D01*
X115769428Y-125315261D01*
X115769428Y-125553357D01*
X115721809Y-125648595D01*
X116150380Y-126124785D02*
X115483714Y-126124785D01*
X115674190Y-126124785D02*
X115578952Y-126172404D01*
X115531333Y-126220023D01*
X115483714Y-126315261D01*
X115483714Y-126410500D01*
X116150380Y-127172404D02*
X115150380Y-127172404D01*
X116102761Y-127172404D02*
X116150380Y-127077166D01*
X116150380Y-126886690D01*
X116102761Y-126791452D01*
X116055142Y-126743833D01*
X115959904Y-126696214D01*
X115674190Y-126696214D01*
X115578952Y-126743833D01*
X115531333Y-126791452D01*
X115483714Y-126886690D01*
X115483714Y-127077166D01*
X115531333Y-127172404D01*
X117800380Y-118267642D02*
X116800380Y-118267642D01*
X116800380Y-118648595D01*
X116848000Y-118743833D01*
X116895619Y-118791452D01*
X116990857Y-118839071D01*
X117133714Y-118839071D01*
X117228952Y-118791452D01*
X117276571Y-118743833D01*
X117324190Y-118648595D01*
X117324190Y-118267642D01*
X117800380Y-119410500D02*
X117752761Y-119315261D01*
X117705142Y-119267642D01*
X117609904Y-119220023D01*
X117324190Y-119220023D01*
X117228952Y-119267642D01*
X117181333Y-119315261D01*
X117133714Y-119410500D01*
X117133714Y-119553357D01*
X117181333Y-119648595D01*
X117228952Y-119696214D01*
X117324190Y-119743833D01*
X117609904Y-119743833D01*
X117705142Y-119696214D01*
X117752761Y-119648595D01*
X117800380Y-119553357D01*
X117800380Y-119410500D01*
X117133714Y-120077166D02*
X117800380Y-120267642D01*
X117324190Y-120458119D01*
X117800380Y-120648595D01*
X117133714Y-120839071D01*
X117752761Y-121600976D02*
X117800380Y-121505738D01*
X117800380Y-121315261D01*
X117752761Y-121220023D01*
X117657523Y-121172404D01*
X117276571Y-121172404D01*
X117181333Y-121220023D01*
X117133714Y-121315261D01*
X117133714Y-121505738D01*
X117181333Y-121600976D01*
X117276571Y-121648595D01*
X117371809Y-121648595D01*
X117467047Y-121172404D01*
X117800380Y-122077166D02*
X117133714Y-122077166D01*
X117324190Y-122077166D02*
X117228952Y-122124785D01*
X117181333Y-122172404D01*
X117133714Y-122267642D01*
X117133714Y-122362880D01*
X117752761Y-122648595D02*
X117800380Y-122791452D01*
X117800380Y-123029547D01*
X117752761Y-123124785D01*
X117705142Y-123172404D01*
X117609904Y-123220023D01*
X117514666Y-123220023D01*
X117419428Y-123172404D01*
X117371809Y-123124785D01*
X117324190Y-123029547D01*
X117276571Y-122839071D01*
X117228952Y-122743833D01*
X117181333Y-122696214D01*
X117086095Y-122648595D01*
X116990857Y-122648595D01*
X116895619Y-122696214D01*
X116848000Y-122743833D01*
X116800380Y-122839071D01*
X116800380Y-123077166D01*
X116848000Y-123220023D01*
X117133714Y-124077166D02*
X117800380Y-124077166D01*
X117133714Y-123648595D02*
X117657523Y-123648595D01*
X117752761Y-123696214D01*
X117800380Y-123791452D01*
X117800380Y-123934309D01*
X117752761Y-124029547D01*
X117705142Y-124077166D01*
X117133714Y-124553357D02*
X118133714Y-124553357D01*
X117181333Y-124553357D02*
X117133714Y-124648595D01*
X117133714Y-124839071D01*
X117181333Y-124934309D01*
X117228952Y-124981928D01*
X117324190Y-125029547D01*
X117609904Y-125029547D01*
X117705142Y-124981928D01*
X117752761Y-124934309D01*
X117800380Y-124839071D01*
X117800380Y-124648595D01*
X117752761Y-124553357D01*
X117133714Y-125458119D02*
X118133714Y-125458119D01*
X117181333Y-125458119D02*
X117133714Y-125553357D01*
X117133714Y-125743833D01*
X117181333Y-125839071D01*
X117228952Y-125886690D01*
X117324190Y-125934309D01*
X117609904Y-125934309D01*
X117705142Y-125886690D01*
X117752761Y-125839071D01*
X117800380Y-125743833D01*
X117800380Y-125553357D01*
X117752761Y-125458119D01*
X117800380Y-126505738D02*
X117752761Y-126410500D01*
X117657523Y-126362880D01*
X116800380Y-126362880D01*
X117133714Y-126791452D02*
X117800380Y-127029547D01*
X117133714Y-127267642D02*
X117800380Y-127029547D01*
X118038476Y-126934309D01*
X118086095Y-126886690D01*
X118133714Y-126791452D01*
X119450380Y-121791452D02*
X118450380Y-121791452D01*
X119069428Y-121886690D02*
X119450380Y-122172404D01*
X118783714Y-122172404D02*
X119164666Y-121791452D01*
X119402761Y-122981928D02*
X119450380Y-122886690D01*
X119450380Y-122696214D01*
X119402761Y-122600976D01*
X119307523Y-122553357D01*
X118926571Y-122553357D01*
X118831333Y-122600976D01*
X118783714Y-122696214D01*
X118783714Y-122886690D01*
X118831333Y-122981928D01*
X118926571Y-123029547D01*
X119021809Y-123029547D01*
X119117047Y-122553357D01*
X119450380Y-123458119D02*
X118783714Y-123458119D01*
X118450380Y-123458119D02*
X118498000Y-123410500D01*
X118545619Y-123458119D01*
X118498000Y-123505738D01*
X118450380Y-123458119D01*
X118545619Y-123458119D01*
X118783714Y-123791452D02*
X118783714Y-124172404D01*
X118450380Y-123934309D02*
X119307523Y-123934309D01*
X119402761Y-123981928D01*
X119450380Y-124077166D01*
X119450380Y-124172404D01*
X119450380Y-124505738D02*
X118450380Y-124505738D01*
X119450380Y-124934309D02*
X118926571Y-124934309D01*
X118831333Y-124886690D01*
X118783714Y-124791452D01*
X118783714Y-124648595D01*
X118831333Y-124553357D01*
X118878952Y-124505738D01*
X118926571Y-126505738D02*
X118974190Y-126648595D01*
X119021809Y-126696214D01*
X119117047Y-126743833D01*
X119259904Y-126743833D01*
X119355142Y-126696214D01*
X119402761Y-126648595D01*
X119450380Y-126553357D01*
X119450380Y-126172404D01*
X118450380Y-126172404D01*
X118450380Y-126505738D01*
X118498000Y-126600976D01*
X118545619Y-126648595D01*
X118640857Y-126696214D01*
X118736095Y-126696214D01*
X118831333Y-126648595D01*
X118878952Y-126600976D01*
X118926571Y-126505738D01*
X118926571Y-126172404D01*
X119355142Y-127172404D02*
X119402761Y-127220023D01*
X119450380Y-127172404D01*
X119402761Y-127124785D01*
X119355142Y-127172404D01*
X119450380Y-127172404D01*
D11*
%TO.C,REF\u002A\u002A*%
G36*
X118626931Y-86661814D02*
G01*
X119071555Y-86745635D01*
X119199053Y-87054920D01*
X119326551Y-87364206D01*
X119074246Y-87735246D01*
X119003996Y-87839157D01*
X118941272Y-87933087D01*
X118888938Y-88012652D01*
X118849857Y-88073470D01*
X118826893Y-88111157D01*
X118821942Y-88121421D01*
X118834676Y-88139910D01*
X118869882Y-88179420D01*
X118923062Y-88235522D01*
X118989718Y-88303787D01*
X119065354Y-88379786D01*
X119145472Y-88459092D01*
X119225574Y-88537275D01*
X119301164Y-88609907D01*
X119367745Y-88672559D01*
X119420818Y-88720803D01*
X119455887Y-88750210D01*
X119467623Y-88757241D01*
X119489260Y-88747123D01*
X119536662Y-88718759D01*
X119605193Y-88675129D01*
X119690215Y-88619218D01*
X119787093Y-88554006D01*
X119842350Y-88516219D01*
X119943248Y-88447343D01*
X120034299Y-88386140D01*
X120110970Y-88335578D01*
X120168728Y-88298628D01*
X120203043Y-88278258D01*
X120210254Y-88275197D01*
X120230748Y-88282136D01*
X120278513Y-88301051D01*
X120346832Y-88329087D01*
X120428989Y-88363391D01*
X120518270Y-88401109D01*
X120607958Y-88439387D01*
X120691338Y-88475370D01*
X120761694Y-88506206D01*
X120812310Y-88529039D01*
X120836471Y-88541017D01*
X120837422Y-88541724D01*
X120842036Y-88560531D01*
X120852328Y-88610618D01*
X120867287Y-88686793D01*
X120885901Y-88783865D01*
X120907159Y-88896643D01*
X120919418Y-88962442D01*
X120942362Y-89082950D01*
X120964195Y-89191797D01*
X120983722Y-89283476D01*
X120999748Y-89352481D01*
X121011079Y-89393304D01*
X121014674Y-89401511D01*
X121039006Y-89409548D01*
X121093959Y-89416033D01*
X121173108Y-89420970D01*
X121270026Y-89424364D01*
X121378287Y-89426218D01*
X121491465Y-89426538D01*
X121603135Y-89425327D01*
X121706868Y-89422590D01*
X121796241Y-89418331D01*
X121864826Y-89412555D01*
X121906197Y-89405267D01*
X121914810Y-89400895D01*
X121925133Y-89374764D01*
X121939892Y-89319393D01*
X121957352Y-89242107D01*
X121975780Y-89150230D01*
X121981741Y-89118158D01*
X122010066Y-88963524D01*
X122032876Y-88841375D01*
X122051080Y-88747673D01*
X122065583Y-88678384D01*
X122077292Y-88629471D01*
X122087115Y-88596897D01*
X122095956Y-88576628D01*
X122104724Y-88564626D01*
X122106457Y-88562947D01*
X122134371Y-88546184D01*
X122188695Y-88520614D01*
X122262777Y-88488788D01*
X122349965Y-88453260D01*
X122443608Y-88416583D01*
X122537052Y-88381311D01*
X122623647Y-88349996D01*
X122696740Y-88325193D01*
X122749678Y-88309454D01*
X122775811Y-88305332D01*
X122776726Y-88305676D01*
X122798086Y-88319641D01*
X122845084Y-88351322D01*
X122912827Y-88397391D01*
X122996423Y-88454518D01*
X123090982Y-88519373D01*
X123117854Y-88537843D01*
X123215275Y-88603699D01*
X123304163Y-88661650D01*
X123379412Y-88708538D01*
X123435920Y-88741207D01*
X123468581Y-88756500D01*
X123472593Y-88757241D01*
X123493684Y-88744392D01*
X123535464Y-88708888D01*
X123593445Y-88655293D01*
X123663135Y-88588171D01*
X123740045Y-88512087D01*
X123819683Y-88431604D01*
X123897561Y-88351287D01*
X123969186Y-88275699D01*
X124030070Y-88209405D01*
X124075721Y-88156969D01*
X124101650Y-88122955D01*
X124105883Y-88113545D01*
X124095912Y-88091643D01*
X124069020Y-88046800D01*
X124029736Y-87986321D01*
X123998117Y-87939789D01*
X123940098Y-87855475D01*
X123871784Y-87755626D01*
X123803579Y-87655473D01*
X123767075Y-87601627D01*
X123643800Y-87419371D01*
X123726520Y-87266381D01*
X123762759Y-87196682D01*
X123790926Y-87137414D01*
X123806991Y-87097311D01*
X123809226Y-87087103D01*
X123792722Y-87074829D01*
X123746082Y-87050613D01*
X123673609Y-87016263D01*
X123579606Y-86973588D01*
X123468374Y-86924394D01*
X123344215Y-86870490D01*
X123211432Y-86813684D01*
X123074327Y-86755782D01*
X122937202Y-86698593D01*
X122804358Y-86643924D01*
X122680098Y-86593584D01*
X122568725Y-86549380D01*
X122474539Y-86513119D01*
X122401844Y-86486609D01*
X122354941Y-86471658D01*
X122338833Y-86469254D01*
X122318286Y-86488311D01*
X122284933Y-86530036D01*
X122245702Y-86585706D01*
X122242599Y-86590378D01*
X122127423Y-86734264D01*
X121993053Y-86850283D01*
X121843784Y-86937430D01*
X121683913Y-86994699D01*
X121517737Y-87021086D01*
X121349552Y-87015585D01*
X121183655Y-86977190D01*
X121024342Y-86904895D01*
X120989487Y-86883626D01*
X120848737Y-86772996D01*
X120735714Y-86642302D01*
X120651003Y-86496064D01*
X120595194Y-86338808D01*
X120568874Y-86175057D01*
X120572630Y-86009333D01*
X120607050Y-85846162D01*
X120672723Y-85690065D01*
X120770235Y-85545567D01*
X120809813Y-85500869D01*
X120933703Y-85387112D01*
X121064124Y-85304218D01*
X121210315Y-85247356D01*
X121355088Y-85215687D01*
X121517860Y-85207869D01*
X121681440Y-85233938D01*
X121840298Y-85291245D01*
X121988906Y-85377144D01*
X122121735Y-85488986D01*
X122233256Y-85624123D01*
X122245011Y-85641883D01*
X122283508Y-85698150D01*
X122316863Y-85740923D01*
X122338160Y-85761372D01*
X122338833Y-85761669D01*
X122361871Y-85757279D01*
X122414157Y-85739876D01*
X122491390Y-85711268D01*
X122589268Y-85673265D01*
X122703491Y-85627674D01*
X122829758Y-85576303D01*
X122963767Y-85520962D01*
X123101218Y-85463458D01*
X123237808Y-85405601D01*
X123369237Y-85349198D01*
X123491205Y-85296058D01*
X123599409Y-85247990D01*
X123689549Y-85206801D01*
X123757323Y-85174301D01*
X123798430Y-85152297D01*
X123809226Y-85143436D01*
X123800819Y-85116360D01*
X123778272Y-85065697D01*
X123745613Y-85000183D01*
X123726520Y-84964159D01*
X123643800Y-84811168D01*
X123767075Y-84628912D01*
X123830228Y-84535875D01*
X123899727Y-84434015D01*
X123965165Y-84338562D01*
X123998117Y-84290750D01*
X124043273Y-84223505D01*
X124079057Y-84166564D01*
X124100938Y-84127354D01*
X124105563Y-84114619D01*
X124093085Y-84096083D01*
X124058252Y-84055059D01*
X124004678Y-83995525D01*
X123935983Y-83921458D01*
X123855781Y-83836835D01*
X123804286Y-83783315D01*
X123712286Y-83689681D01*
X123629999Y-83608759D01*
X123560945Y-83543823D01*
X123508644Y-83498142D01*
X123476616Y-83474989D01*
X123470116Y-83472768D01*
X123445394Y-83483076D01*
X123395405Y-83511561D01*
X123325212Y-83555063D01*
X123239875Y-83610423D01*
X123144456Y-83674480D01*
X123117854Y-83692697D01*
X123021167Y-83759073D01*
X122934117Y-83818622D01*
X122861595Y-83868016D01*
X122808493Y-83903925D01*
X122779703Y-83923019D01*
X122776726Y-83924864D01*
X122753782Y-83922105D01*
X122703336Y-83907462D01*
X122632041Y-83883487D01*
X122546547Y-83852734D01*
X122453507Y-83817756D01*
X122359574Y-83781107D01*
X122271399Y-83745339D01*
X122195634Y-83713006D01*
X122138931Y-83686662D01*
X122107943Y-83668858D01*
X122106457Y-83667593D01*
X122097601Y-83656706D01*
X122088843Y-83638318D01*
X122079277Y-83608394D01*
X122067996Y-83562897D01*
X122054093Y-83497791D01*
X122036663Y-83409039D01*
X122014798Y-83292607D01*
X121987591Y-83144458D01*
X121981741Y-83112382D01*
X121963374Y-83017314D01*
X121945405Y-82934435D01*
X121929569Y-82871070D01*
X121917600Y-82834542D01*
X121914810Y-82829644D01*
X121890072Y-82821573D01*
X121834790Y-82815013D01*
X121755389Y-82809967D01*
X121658296Y-82806441D01*
X121549938Y-82804439D01*
X121436740Y-82803964D01*
X121325128Y-82805023D01*
X121221529Y-82807618D01*
X121132368Y-82811754D01*
X121064072Y-82817437D01*
X121023066Y-82824669D01*
X121014674Y-82829029D01*
X121006208Y-82853302D01*
X120992435Y-82908574D01*
X120974550Y-82989338D01*
X120953748Y-83090088D01*
X120931223Y-83205317D01*
X120919418Y-83268098D01*
X120897151Y-83387213D01*
X120876979Y-83493435D01*
X120859915Y-83581573D01*
X120846969Y-83646434D01*
X120839155Y-83682826D01*
X120837422Y-83688816D01*
X120817890Y-83698939D01*
X120770843Y-83720338D01*
X120703003Y-83750161D01*
X120621091Y-83785555D01*
X120531828Y-83823668D01*
X120441935Y-83861647D01*
X120358135Y-83896640D01*
X120287147Y-83925794D01*
X120235694Y-83946257D01*
X120210497Y-83955177D01*
X120209396Y-83955343D01*
X120189519Y-83945231D01*
X120143777Y-83916883D01*
X120076717Y-83873277D01*
X119992884Y-83817394D01*
X119896826Y-83752213D01*
X119841650Y-83714321D01*
X119740481Y-83645275D01*
X119648630Y-83583950D01*
X119570744Y-83533337D01*
X119511469Y-83496429D01*
X119475451Y-83476218D01*
X119467377Y-83473299D01*
X119448584Y-83485847D01*
X119408457Y-83520537D01*
X119351493Y-83572937D01*
X119282185Y-83638616D01*
X119205031Y-83713144D01*
X119124525Y-83792087D01*
X119045163Y-83871017D01*
X118971440Y-83945500D01*
X118907852Y-84011106D01*
X118858894Y-84063404D01*
X118829061Y-84097961D01*
X118821942Y-84109522D01*
X118831953Y-84128346D01*
X118860078Y-84173369D01*
X118903454Y-84240213D01*
X118959218Y-84324501D01*
X119024506Y-84421856D01*
X119074246Y-84495293D01*
X119326551Y-84866333D01*
X119071555Y-85484905D01*
X118626931Y-85568725D01*
X118182307Y-85652546D01*
X118182307Y-86577994D01*
X118626931Y-86661814D01*
G37*
X118626931Y-86661814D02*
X119071555Y-86745635D01*
X119199053Y-87054920D01*
X119326551Y-87364206D01*
X119074246Y-87735246D01*
X119003996Y-87839157D01*
X118941272Y-87933087D01*
X118888938Y-88012652D01*
X118849857Y-88073470D01*
X118826893Y-88111157D01*
X118821942Y-88121421D01*
X118834676Y-88139910D01*
X118869882Y-88179420D01*
X118923062Y-88235522D01*
X118989718Y-88303787D01*
X119065354Y-88379786D01*
X119145472Y-88459092D01*
X119225574Y-88537275D01*
X119301164Y-88609907D01*
X119367745Y-88672559D01*
X119420818Y-88720803D01*
X119455887Y-88750210D01*
X119467623Y-88757241D01*
X119489260Y-88747123D01*
X119536662Y-88718759D01*
X119605193Y-88675129D01*
X119690215Y-88619218D01*
X119787093Y-88554006D01*
X119842350Y-88516219D01*
X119943248Y-88447343D01*
X120034299Y-88386140D01*
X120110970Y-88335578D01*
X120168728Y-88298628D01*
X120203043Y-88278258D01*
X120210254Y-88275197D01*
X120230748Y-88282136D01*
X120278513Y-88301051D01*
X120346832Y-88329087D01*
X120428989Y-88363391D01*
X120518270Y-88401109D01*
X120607958Y-88439387D01*
X120691338Y-88475370D01*
X120761694Y-88506206D01*
X120812310Y-88529039D01*
X120836471Y-88541017D01*
X120837422Y-88541724D01*
X120842036Y-88560531D01*
X120852328Y-88610618D01*
X120867287Y-88686793D01*
X120885901Y-88783865D01*
X120907159Y-88896643D01*
X120919418Y-88962442D01*
X120942362Y-89082950D01*
X120964195Y-89191797D01*
X120983722Y-89283476D01*
X120999748Y-89352481D01*
X121011079Y-89393304D01*
X121014674Y-89401511D01*
X121039006Y-89409548D01*
X121093959Y-89416033D01*
X121173108Y-89420970D01*
X121270026Y-89424364D01*
X121378287Y-89426218D01*
X121491465Y-89426538D01*
X121603135Y-89425327D01*
X121706868Y-89422590D01*
X121796241Y-89418331D01*
X121864826Y-89412555D01*
X121906197Y-89405267D01*
X121914810Y-89400895D01*
X121925133Y-89374764D01*
X121939892Y-89319393D01*
X121957352Y-89242107D01*
X121975780Y-89150230D01*
X121981741Y-89118158D01*
X122010066Y-88963524D01*
X122032876Y-88841375D01*
X122051080Y-88747673D01*
X122065583Y-88678384D01*
X122077292Y-88629471D01*
X122087115Y-88596897D01*
X122095956Y-88576628D01*
X122104724Y-88564626D01*
X122106457Y-88562947D01*
X122134371Y-88546184D01*
X122188695Y-88520614D01*
X122262777Y-88488788D01*
X122349965Y-88453260D01*
X122443608Y-88416583D01*
X122537052Y-88381311D01*
X122623647Y-88349996D01*
X122696740Y-88325193D01*
X122749678Y-88309454D01*
X122775811Y-88305332D01*
X122776726Y-88305676D01*
X122798086Y-88319641D01*
X122845084Y-88351322D01*
X122912827Y-88397391D01*
X122996423Y-88454518D01*
X123090982Y-88519373D01*
X123117854Y-88537843D01*
X123215275Y-88603699D01*
X123304163Y-88661650D01*
X123379412Y-88708538D01*
X123435920Y-88741207D01*
X123468581Y-88756500D01*
X123472593Y-88757241D01*
X123493684Y-88744392D01*
X123535464Y-88708888D01*
X123593445Y-88655293D01*
X123663135Y-88588171D01*
X123740045Y-88512087D01*
X123819683Y-88431604D01*
X123897561Y-88351287D01*
X123969186Y-88275699D01*
X124030070Y-88209405D01*
X124075721Y-88156969D01*
X124101650Y-88122955D01*
X124105883Y-88113545D01*
X124095912Y-88091643D01*
X124069020Y-88046800D01*
X124029736Y-87986321D01*
X123998117Y-87939789D01*
X123940098Y-87855475D01*
X123871784Y-87755626D01*
X123803579Y-87655473D01*
X123767075Y-87601627D01*
X123643800Y-87419371D01*
X123726520Y-87266381D01*
X123762759Y-87196682D01*
X123790926Y-87137414D01*
X123806991Y-87097311D01*
X123809226Y-87087103D01*
X123792722Y-87074829D01*
X123746082Y-87050613D01*
X123673609Y-87016263D01*
X123579606Y-86973588D01*
X123468374Y-86924394D01*
X123344215Y-86870490D01*
X123211432Y-86813684D01*
X123074327Y-86755782D01*
X122937202Y-86698593D01*
X122804358Y-86643924D01*
X122680098Y-86593584D01*
X122568725Y-86549380D01*
X122474539Y-86513119D01*
X122401844Y-86486609D01*
X122354941Y-86471658D01*
X122338833Y-86469254D01*
X122318286Y-86488311D01*
X122284933Y-86530036D01*
X122245702Y-86585706D01*
X122242599Y-86590378D01*
X122127423Y-86734264D01*
X121993053Y-86850283D01*
X121843784Y-86937430D01*
X121683913Y-86994699D01*
X121517737Y-87021086D01*
X121349552Y-87015585D01*
X121183655Y-86977190D01*
X121024342Y-86904895D01*
X120989487Y-86883626D01*
X120848737Y-86772996D01*
X120735714Y-86642302D01*
X120651003Y-86496064D01*
X120595194Y-86338808D01*
X120568874Y-86175057D01*
X120572630Y-86009333D01*
X120607050Y-85846162D01*
X120672723Y-85690065D01*
X120770235Y-85545567D01*
X120809813Y-85500869D01*
X120933703Y-85387112D01*
X121064124Y-85304218D01*
X121210315Y-85247356D01*
X121355088Y-85215687D01*
X121517860Y-85207869D01*
X121681440Y-85233938D01*
X121840298Y-85291245D01*
X121988906Y-85377144D01*
X122121735Y-85488986D01*
X122233256Y-85624123D01*
X122245011Y-85641883D01*
X122283508Y-85698150D01*
X122316863Y-85740923D01*
X122338160Y-85761372D01*
X122338833Y-85761669D01*
X122361871Y-85757279D01*
X122414157Y-85739876D01*
X122491390Y-85711268D01*
X122589268Y-85673265D01*
X122703491Y-85627674D01*
X122829758Y-85576303D01*
X122963767Y-85520962D01*
X123101218Y-85463458D01*
X123237808Y-85405601D01*
X123369237Y-85349198D01*
X123491205Y-85296058D01*
X123599409Y-85247990D01*
X123689549Y-85206801D01*
X123757323Y-85174301D01*
X123798430Y-85152297D01*
X123809226Y-85143436D01*
X123800819Y-85116360D01*
X123778272Y-85065697D01*
X123745613Y-85000183D01*
X123726520Y-84964159D01*
X123643800Y-84811168D01*
X123767075Y-84628912D01*
X123830228Y-84535875D01*
X123899727Y-84434015D01*
X123965165Y-84338562D01*
X123998117Y-84290750D01*
X124043273Y-84223505D01*
X124079057Y-84166564D01*
X124100938Y-84127354D01*
X124105563Y-84114619D01*
X124093085Y-84096083D01*
X124058252Y-84055059D01*
X124004678Y-83995525D01*
X123935983Y-83921458D01*
X123855781Y-83836835D01*
X123804286Y-83783315D01*
X123712286Y-83689681D01*
X123629999Y-83608759D01*
X123560945Y-83543823D01*
X123508644Y-83498142D01*
X123476616Y-83474989D01*
X123470116Y-83472768D01*
X123445394Y-83483076D01*
X123395405Y-83511561D01*
X123325212Y-83555063D01*
X123239875Y-83610423D01*
X123144456Y-83674480D01*
X123117854Y-83692697D01*
X123021167Y-83759073D01*
X122934117Y-83818622D01*
X122861595Y-83868016D01*
X122808493Y-83903925D01*
X122779703Y-83923019D01*
X122776726Y-83924864D01*
X122753782Y-83922105D01*
X122703336Y-83907462D01*
X122632041Y-83883487D01*
X122546547Y-83852734D01*
X122453507Y-83817756D01*
X122359574Y-83781107D01*
X122271399Y-83745339D01*
X122195634Y-83713006D01*
X122138931Y-83686662D01*
X122107943Y-83668858D01*
X122106457Y-83667593D01*
X122097601Y-83656706D01*
X122088843Y-83638318D01*
X122079277Y-83608394D01*
X122067996Y-83562897D01*
X122054093Y-83497791D01*
X122036663Y-83409039D01*
X122014798Y-83292607D01*
X121987591Y-83144458D01*
X121981741Y-83112382D01*
X121963374Y-83017314D01*
X121945405Y-82934435D01*
X121929569Y-82871070D01*
X121917600Y-82834542D01*
X121914810Y-82829644D01*
X121890072Y-82821573D01*
X121834790Y-82815013D01*
X121755389Y-82809967D01*
X121658296Y-82806441D01*
X121549938Y-82804439D01*
X121436740Y-82803964D01*
X121325128Y-82805023D01*
X121221529Y-82807618D01*
X121132368Y-82811754D01*
X121064072Y-82817437D01*
X121023066Y-82824669D01*
X121014674Y-82829029D01*
X121006208Y-82853302D01*
X120992435Y-82908574D01*
X120974550Y-82989338D01*
X120953748Y-83090088D01*
X120931223Y-83205317D01*
X120919418Y-83268098D01*
X120897151Y-83387213D01*
X120876979Y-83493435D01*
X120859915Y-83581573D01*
X120846969Y-83646434D01*
X120839155Y-83682826D01*
X120837422Y-83688816D01*
X120817890Y-83698939D01*
X120770843Y-83720338D01*
X120703003Y-83750161D01*
X120621091Y-83785555D01*
X120531828Y-83823668D01*
X120441935Y-83861647D01*
X120358135Y-83896640D01*
X120287147Y-83925794D01*
X120235694Y-83946257D01*
X120210497Y-83955177D01*
X120209396Y-83955343D01*
X120189519Y-83945231D01*
X120143777Y-83916883D01*
X120076717Y-83873277D01*
X119992884Y-83817394D01*
X119896826Y-83752213D01*
X119841650Y-83714321D01*
X119740481Y-83645275D01*
X119648630Y-83583950D01*
X119570744Y-83533337D01*
X119511469Y-83496429D01*
X119475451Y-83476218D01*
X119467377Y-83473299D01*
X119448584Y-83485847D01*
X119408457Y-83520537D01*
X119351493Y-83572937D01*
X119282185Y-83638616D01*
X119205031Y-83713144D01*
X119124525Y-83792087D01*
X119045163Y-83871017D01*
X118971440Y-83945500D01*
X118907852Y-84011106D01*
X118858894Y-84063404D01*
X118829061Y-84097961D01*
X118821942Y-84109522D01*
X118831953Y-84128346D01*
X118860078Y-84173369D01*
X118903454Y-84240213D01*
X118959218Y-84324501D01*
X119024506Y-84421856D01*
X119074246Y-84495293D01*
X119326551Y-84866333D01*
X119071555Y-85484905D01*
X118626931Y-85568725D01*
X118182307Y-85652546D01*
X118182307Y-86577994D01*
X118626931Y-86661814D01*
G36*
X120171054Y-101447600D02*
G01*
X120284993Y-101458465D01*
X120392616Y-101490082D01*
X120491615Y-101540985D01*
X120579684Y-101609707D01*
X120654516Y-101694781D01*
X120712384Y-101791768D01*
X120752005Y-101898036D01*
X120770573Y-102005050D01*
X120769434Y-102110700D01*
X120749930Y-102212875D01*
X120713406Y-102309466D01*
X120661205Y-102398362D01*
X120594673Y-102477454D01*
X120515152Y-102544631D01*
X120423987Y-102597783D01*
X120322523Y-102634801D01*
X120212102Y-102653573D01*
X120162206Y-102655511D01*
X120074267Y-102655511D01*
X120074267Y-102707440D01*
X120077111Y-102743747D01*
X120088911Y-102770645D01*
X120112649Y-102797751D01*
X120151031Y-102836133D01*
X122342602Y-102836133D01*
X122604739Y-102836124D01*
X122845241Y-102836092D01*
X123065048Y-102836028D01*
X123265101Y-102835924D01*
X123446344Y-102835773D01*
X123609716Y-102835566D01*
X123756160Y-102835294D01*
X123886617Y-102834950D01*
X124002029Y-102834526D01*
X124103338Y-102834013D01*
X124191484Y-102833403D01*
X124267410Y-102832688D01*
X124332057Y-102831860D01*
X124386367Y-102830911D01*
X124431280Y-102829833D01*
X124467740Y-102828617D01*
X124496687Y-102827255D01*
X124519063Y-102825739D01*
X124535809Y-102824062D01*
X124547868Y-102822214D01*
X124556180Y-102820187D01*
X124561687Y-102817975D01*
X124563537Y-102816892D01*
X124570549Y-102812729D01*
X124576996Y-102809195D01*
X124582900Y-102805365D01*
X124588286Y-102800318D01*
X124593178Y-102793129D01*
X124597598Y-102782877D01*
X124601572Y-102768636D01*
X124605121Y-102749486D01*
X124608270Y-102724501D01*
X124611042Y-102692760D01*
X124613461Y-102653338D01*
X124615551Y-102605314D01*
X124617335Y-102547763D01*
X124618837Y-102479763D01*
X124620080Y-102400390D01*
X124621089Y-102308721D01*
X124621885Y-102203834D01*
X124622494Y-102084804D01*
X124622939Y-101950710D01*
X124623243Y-101800627D01*
X124623430Y-101633633D01*
X124623524Y-101448804D01*
X124623548Y-101245217D01*
X124623525Y-101021950D01*
X124623480Y-100778078D01*
X124623437Y-100512679D01*
X124623432Y-100474296D01*
X124623389Y-100207318D01*
X124623318Y-99961998D01*
X124623213Y-99737417D01*
X124623066Y-99532655D01*
X124622869Y-99346794D01*
X124622616Y-99178912D01*
X124622300Y-99028092D01*
X124621913Y-98893413D01*
X124621447Y-98773956D01*
X124620897Y-98668801D01*
X124620253Y-98577029D01*
X124619511Y-98497721D01*
X124618661Y-98429957D01*
X124617697Y-98372818D01*
X124616611Y-98325383D01*
X124615397Y-98286734D01*
X124614047Y-98255951D01*
X124612555Y-98232115D01*
X124610911Y-98214306D01*
X124609111Y-98201605D01*
X124607145Y-98193092D01*
X124605477Y-98188734D01*
X124601906Y-98180272D01*
X124599270Y-98172503D01*
X124596634Y-98165398D01*
X124593062Y-98158927D01*
X124587621Y-98153061D01*
X124579375Y-98147771D01*
X124567390Y-98143026D01*
X124550731Y-98138798D01*
X124528463Y-98135057D01*
X124499652Y-98131773D01*
X124463363Y-98128917D01*
X124418661Y-98126460D01*
X124364611Y-98124371D01*
X124300279Y-98122622D01*
X124224730Y-98121183D01*
X124137030Y-98120024D01*
X124036243Y-98119117D01*
X123921434Y-98118431D01*
X123791670Y-98117937D01*
X123646015Y-98117605D01*
X123483535Y-98117407D01*
X123303295Y-98117313D01*
X123104360Y-98117292D01*
X122885796Y-98117315D01*
X122646668Y-98117354D01*
X122386040Y-98117378D01*
X122343889Y-98117378D01*
X122080992Y-98117364D01*
X121839732Y-98117339D01*
X121619165Y-98117329D01*
X121418352Y-98117358D01*
X121236349Y-98117452D01*
X121072216Y-98117638D01*
X120925011Y-98117941D01*
X120793792Y-98118386D01*
X120683867Y-98118966D01*
X120683867Y-98421803D01*
X120741711Y-98461593D01*
X120757479Y-98472764D01*
X120771441Y-98482834D01*
X120784784Y-98491862D01*
X120798693Y-98499903D01*
X120814356Y-98507014D01*
X120832958Y-98513253D01*
X120855686Y-98518675D01*
X120883727Y-98523338D01*
X120918267Y-98527299D01*
X120960492Y-98530615D01*
X121011589Y-98533341D01*
X121072744Y-98535536D01*
X121145144Y-98537255D01*
X121229975Y-98538556D01*
X121328422Y-98539495D01*
X121441674Y-98540130D01*
X121570916Y-98540516D01*
X121717334Y-98540712D01*
X121882116Y-98540773D01*
X122066447Y-98540757D01*
X122271513Y-98540720D01*
X122394133Y-98540711D01*
X122611082Y-98540735D01*
X122806642Y-98540769D01*
X122981999Y-98540757D01*
X123138341Y-98540642D01*
X123276857Y-98540370D01*
X123398734Y-98539882D01*
X123505160Y-98539124D01*
X123597322Y-98538038D01*
X123676409Y-98536569D01*
X123743608Y-98534660D01*
X123800107Y-98532256D01*
X123847093Y-98529299D01*
X123885755Y-98525734D01*
X123917280Y-98521505D01*
X123942855Y-98516554D01*
X123963670Y-98510827D01*
X123980911Y-98504267D01*
X123995765Y-98496817D01*
X124009422Y-98488421D01*
X124023069Y-98479024D01*
X124037893Y-98468568D01*
X124046783Y-98462477D01*
X124104400Y-98423704D01*
X124104400Y-98955268D01*
X124104365Y-99078517D01*
X124104215Y-99181013D01*
X124103878Y-99264580D01*
X124103286Y-99331044D01*
X124102367Y-99382229D01*
X124101051Y-99419959D01*
X124099269Y-99446060D01*
X124096951Y-99462356D01*
X124094026Y-99470672D01*
X124090424Y-99472832D01*
X124086075Y-99470661D01*
X124084645Y-99469465D01*
X124047573Y-99444315D01*
X123994772Y-99418417D01*
X123932770Y-99394808D01*
X123906357Y-99386539D01*
X123888416Y-99381922D01*
X123867355Y-99378021D01*
X123841089Y-99374752D01*
X123807532Y-99372034D01*
X123764599Y-99369785D01*
X123710204Y-99367923D01*
X123642262Y-99366364D01*
X123558688Y-99365028D01*
X123457395Y-99363831D01*
X123336300Y-99362692D01*
X123291600Y-99362315D01*
X123166449Y-99361298D01*
X123062082Y-99360540D01*
X122976707Y-99360097D01*
X122908533Y-99360030D01*
X122855765Y-99360395D01*
X122816614Y-99361252D01*
X122789285Y-99362659D01*
X122771986Y-99364675D01*
X122762926Y-99367357D01*
X122760312Y-99370764D01*
X122762351Y-99374956D01*
X122766667Y-99379429D01*
X122779602Y-99389784D01*
X122808676Y-99411842D01*
X122851759Y-99444043D01*
X122906718Y-99484826D01*
X122971423Y-99532630D01*
X123043742Y-99585895D01*
X123121544Y-99643060D01*
X123202698Y-99702563D01*
X123285072Y-99762845D01*
X123366536Y-99822345D01*
X123444957Y-99879502D01*
X123518204Y-99932755D01*
X123584147Y-99980543D01*
X123640654Y-100021307D01*
X123685593Y-100053484D01*
X123716834Y-100075515D01*
X123723466Y-100080083D01*
X123760369Y-100103004D01*
X123808359Y-100129812D01*
X123857897Y-100155211D01*
X123864577Y-100158432D01*
X123912772Y-100180110D01*
X123950334Y-100192696D01*
X123986160Y-100198426D01*
X124028200Y-100199544D01*
X124104400Y-100198910D01*
X124104400Y-101353349D01*
X124010669Y-101262185D01*
X123960775Y-101215388D01*
X123904295Y-101165101D01*
X123850026Y-101119056D01*
X123824673Y-101098631D01*
X123785128Y-101068193D01*
X123731916Y-101028138D01*
X123666667Y-100979639D01*
X123591011Y-100923865D01*
X123506577Y-100861989D01*
X123414994Y-100795181D01*
X123317892Y-100724613D01*
X123216901Y-100651455D01*
X123113650Y-100576879D01*
X123009768Y-100502056D01*
X122906885Y-100428157D01*
X122806631Y-100356354D01*
X122710636Y-100287816D01*
X122620527Y-100223716D01*
X122537936Y-100165225D01*
X122464492Y-100113514D01*
X122401824Y-100069753D01*
X122351561Y-100035115D01*
X122315334Y-100010770D01*
X122294771Y-99997889D01*
X122290668Y-99996131D01*
X122279342Y-100004090D01*
X122252162Y-100024885D01*
X122210829Y-100057153D01*
X122157044Y-100099530D01*
X122092506Y-100150653D01*
X122018918Y-100209159D01*
X121937978Y-100273686D01*
X121851388Y-100342869D01*
X121760848Y-100415347D01*
X121668060Y-100489754D01*
X121593702Y-100549483D01*
X121593702Y-101560489D01*
X121606659Y-101566398D01*
X121628908Y-101580728D01*
X121630391Y-101581775D01*
X121660544Y-101600562D01*
X121697375Y-101620209D01*
X121705511Y-101624108D01*
X121713940Y-101627644D01*
X121724059Y-101630770D01*
X121737260Y-101633514D01*
X121754938Y-101635908D01*
X121778484Y-101637981D01*
X121809293Y-101639765D01*
X121848757Y-101641288D01*
X121898269Y-101642581D01*
X121959223Y-101643674D01*
X122033011Y-101644597D01*
X122121028Y-101645381D01*
X122224665Y-101646055D01*
X122345316Y-101646650D01*
X122484374Y-101647195D01*
X122643232Y-101647721D01*
X122822089Y-101648255D01*
X123007207Y-101648794D01*
X123171145Y-101649228D01*
X123315303Y-101649491D01*
X123441079Y-101649516D01*
X123549871Y-101649235D01*
X123643077Y-101648581D01*
X123722097Y-101647486D01*
X123788328Y-101645882D01*
X123843170Y-101643703D01*
X123888021Y-101640881D01*
X123924278Y-101637349D01*
X123953341Y-101633039D01*
X123976609Y-101627883D01*
X123995479Y-101621815D01*
X124011351Y-101614767D01*
X124025622Y-101606671D01*
X124039691Y-101597460D01*
X124052158Y-101588960D01*
X124078452Y-101571824D01*
X124096037Y-101561678D01*
X124099257Y-101560489D01*
X124100334Y-101571396D01*
X124101335Y-101602589D01*
X124102235Y-101651777D01*
X124103010Y-101716667D01*
X124103637Y-101794970D01*
X124104091Y-101884393D01*
X124104349Y-101982644D01*
X124104400Y-102051555D01*
X124104180Y-102156548D01*
X124103548Y-102253390D01*
X124102549Y-102339893D01*
X124101227Y-102413868D01*
X124099626Y-102473126D01*
X124097791Y-102515480D01*
X124095765Y-102538740D01*
X124094493Y-102542622D01*
X124079591Y-102534924D01*
X124071560Y-102526926D01*
X124054434Y-102513754D01*
X124024183Y-102496515D01*
X123999622Y-102484593D01*
X123940711Y-102457955D01*
X122763845Y-102454880D01*
X121586978Y-102451805D01*
X121586978Y-102006147D01*
X121587142Y-101908330D01*
X121587611Y-101817936D01*
X121588347Y-101737370D01*
X121589316Y-101669038D01*
X121590480Y-101615344D01*
X121591803Y-101578695D01*
X121593249Y-101561496D01*
X121593702Y-101560489D01*
X121593702Y-100549483D01*
X121574722Y-100564730D01*
X121482537Y-100638910D01*
X121393204Y-100710931D01*
X121308424Y-100779431D01*
X121229898Y-100843045D01*
X121159326Y-100900412D01*
X121098409Y-100950167D01*
X121048847Y-100990948D01*
X121028178Y-101008112D01*
X120927516Y-101094404D01*
X120844259Y-101171003D01*
X120776438Y-101239817D01*
X120722089Y-101302752D01*
X120714722Y-101312133D01*
X120684117Y-101351644D01*
X120683867Y-100219884D01*
X120731844Y-100225173D01*
X120789188Y-100221870D01*
X120857463Y-100200339D01*
X120937212Y-100160365D01*
X121009495Y-100115057D01*
X121032140Y-100098839D01*
X121069696Y-100070786D01*
X121120021Y-100032570D01*
X121180973Y-99985863D01*
X121250411Y-99932339D01*
X121326194Y-99873669D01*
X121406180Y-99811525D01*
X121488228Y-99747579D01*
X121570196Y-99683505D01*
X121649943Y-99620973D01*
X121725327Y-99561657D01*
X121794207Y-99507229D01*
X121854442Y-99459361D01*
X121903889Y-99419725D01*
X121940408Y-99389994D01*
X121961858Y-99371839D01*
X121965156Y-99368780D01*
X121957149Y-99365921D01*
X121926855Y-99363707D01*
X121874556Y-99362143D01*
X121800531Y-99361233D01*
X121705063Y-99360980D01*
X121588434Y-99361387D01*
X121468445Y-99362296D01*
X121336333Y-99363618D01*
X121224594Y-99365143D01*
X121131025Y-99367119D01*
X121053419Y-99369794D01*
X120989574Y-99373418D01*
X120937283Y-99378239D01*
X120894344Y-99384506D01*
X120858551Y-99392468D01*
X120827700Y-99402373D01*
X120799586Y-99414469D01*
X120772005Y-99429007D01*
X120746966Y-99443689D01*
X120683867Y-99481686D01*
X120683867Y-98421803D01*
X120683867Y-98118966D01*
X120677617Y-98118999D01*
X120575544Y-98119805D01*
X120486633Y-98120830D01*
X120409941Y-98122100D01*
X120344527Y-98123640D01*
X120289449Y-98125476D01*
X120243765Y-98127633D01*
X120206534Y-98130137D01*
X120176813Y-98133013D01*
X120153662Y-98136287D01*
X120136139Y-98139985D01*
X120123301Y-98144131D01*
X120114208Y-98148753D01*
X120107918Y-98153874D01*
X120103488Y-98159522D01*
X120099978Y-98165721D01*
X120096445Y-98172496D01*
X120092876Y-98178492D01*
X120090300Y-98183725D01*
X120087972Y-98191901D01*
X120085878Y-98204114D01*
X120084007Y-98221459D01*
X120082347Y-98245031D01*
X120080884Y-98275923D01*
X120079608Y-98315232D01*
X120078504Y-98364050D01*
X120077561Y-98423473D01*
X120076767Y-98494596D01*
X120076109Y-98578512D01*
X120075575Y-98676317D01*
X120075153Y-98789106D01*
X120074829Y-98917971D01*
X120074592Y-99064009D01*
X120074430Y-99228314D01*
X120074330Y-99411980D01*
X120074280Y-99616103D01*
X120074267Y-99827247D01*
X120074267Y-101447600D01*
X120171054Y-101447600D01*
G37*
X120171054Y-101447600D02*
X120284993Y-101458465D01*
X120392616Y-101490082D01*
X120491615Y-101540985D01*
X120579684Y-101609707D01*
X120654516Y-101694781D01*
X120712384Y-101791768D01*
X120752005Y-101898036D01*
X120770573Y-102005050D01*
X120769434Y-102110700D01*
X120749930Y-102212875D01*
X120713406Y-102309466D01*
X120661205Y-102398362D01*
X120594673Y-102477454D01*
X120515152Y-102544631D01*
X120423987Y-102597783D01*
X120322523Y-102634801D01*
X120212102Y-102653573D01*
X120162206Y-102655511D01*
X120074267Y-102655511D01*
X120074267Y-102707440D01*
X120077111Y-102743747D01*
X120088911Y-102770645D01*
X120112649Y-102797751D01*
X120151031Y-102836133D01*
X122342602Y-102836133D01*
X122604739Y-102836124D01*
X122845241Y-102836092D01*
X123065048Y-102836028D01*
X123265101Y-102835924D01*
X123446344Y-102835773D01*
X123609716Y-102835566D01*
X123756160Y-102835294D01*
X123886617Y-102834950D01*
X124002029Y-102834526D01*
X124103338Y-102834013D01*
X124191484Y-102833403D01*
X124267410Y-102832688D01*
X124332057Y-102831860D01*
X124386367Y-102830911D01*
X124431280Y-102829833D01*
X124467740Y-102828617D01*
X124496687Y-102827255D01*
X124519063Y-102825739D01*
X124535809Y-102824062D01*
X124547868Y-102822214D01*
X124556180Y-102820187D01*
X124561687Y-102817975D01*
X124563537Y-102816892D01*
X124570549Y-102812729D01*
X124576996Y-102809195D01*
X124582900Y-102805365D01*
X124588286Y-102800318D01*
X124593178Y-102793129D01*
X124597598Y-102782877D01*
X124601572Y-102768636D01*
X124605121Y-102749486D01*
X124608270Y-102724501D01*
X124611042Y-102692760D01*
X124613461Y-102653338D01*
X124615551Y-102605314D01*
X124617335Y-102547763D01*
X124618837Y-102479763D01*
X124620080Y-102400390D01*
X124621089Y-102308721D01*
X124621885Y-102203834D01*
X124622494Y-102084804D01*
X124622939Y-101950710D01*
X124623243Y-101800627D01*
X124623430Y-101633633D01*
X124623524Y-101448804D01*
X124623548Y-101245217D01*
X124623525Y-101021950D01*
X124623480Y-100778078D01*
X124623437Y-100512679D01*
X124623432Y-100474296D01*
X124623389Y-100207318D01*
X124623318Y-99961998D01*
X124623213Y-99737417D01*
X124623066Y-99532655D01*
X124622869Y-99346794D01*
X124622616Y-99178912D01*
X124622300Y-99028092D01*
X124621913Y-98893413D01*
X124621447Y-98773956D01*
X124620897Y-98668801D01*
X124620253Y-98577029D01*
X124619511Y-98497721D01*
X124618661Y-98429957D01*
X124617697Y-98372818D01*
X124616611Y-98325383D01*
X124615397Y-98286734D01*
X124614047Y-98255951D01*
X124612555Y-98232115D01*
X124610911Y-98214306D01*
X124609111Y-98201605D01*
X124607145Y-98193092D01*
X124605477Y-98188734D01*
X124601906Y-98180272D01*
X124599270Y-98172503D01*
X124596634Y-98165398D01*
X124593062Y-98158927D01*
X124587621Y-98153061D01*
X124579375Y-98147771D01*
X124567390Y-98143026D01*
X124550731Y-98138798D01*
X124528463Y-98135057D01*
X124499652Y-98131773D01*
X124463363Y-98128917D01*
X124418661Y-98126460D01*
X124364611Y-98124371D01*
X124300279Y-98122622D01*
X124224730Y-98121183D01*
X124137030Y-98120024D01*
X124036243Y-98119117D01*
X123921434Y-98118431D01*
X123791670Y-98117937D01*
X123646015Y-98117605D01*
X123483535Y-98117407D01*
X123303295Y-98117313D01*
X123104360Y-98117292D01*
X122885796Y-98117315D01*
X122646668Y-98117354D01*
X122386040Y-98117378D01*
X122343889Y-98117378D01*
X122080992Y-98117364D01*
X121839732Y-98117339D01*
X121619165Y-98117329D01*
X121418352Y-98117358D01*
X121236349Y-98117452D01*
X121072216Y-98117638D01*
X120925011Y-98117941D01*
X120793792Y-98118386D01*
X120683867Y-98118966D01*
X120683867Y-98421803D01*
X120741711Y-98461593D01*
X120757479Y-98472764D01*
X120771441Y-98482834D01*
X120784784Y-98491862D01*
X120798693Y-98499903D01*
X120814356Y-98507014D01*
X120832958Y-98513253D01*
X120855686Y-98518675D01*
X120883727Y-98523338D01*
X120918267Y-98527299D01*
X120960492Y-98530615D01*
X121011589Y-98533341D01*
X121072744Y-98535536D01*
X121145144Y-98537255D01*
X121229975Y-98538556D01*
X121328422Y-98539495D01*
X121441674Y-98540130D01*
X121570916Y-98540516D01*
X121717334Y-98540712D01*
X121882116Y-98540773D01*
X122066447Y-98540757D01*
X122271513Y-98540720D01*
X122394133Y-98540711D01*
X122611082Y-98540735D01*
X122806642Y-98540769D01*
X122981999Y-98540757D01*
X123138341Y-98540642D01*
X123276857Y-98540370D01*
X123398734Y-98539882D01*
X123505160Y-98539124D01*
X123597322Y-98538038D01*
X123676409Y-98536569D01*
X123743608Y-98534660D01*
X123800107Y-98532256D01*
X123847093Y-98529299D01*
X123885755Y-98525734D01*
X123917280Y-98521505D01*
X123942855Y-98516554D01*
X123963670Y-98510827D01*
X123980911Y-98504267D01*
X123995765Y-98496817D01*
X124009422Y-98488421D01*
X124023069Y-98479024D01*
X124037893Y-98468568D01*
X124046783Y-98462477D01*
X124104400Y-98423704D01*
X124104400Y-98955268D01*
X124104365Y-99078517D01*
X124104215Y-99181013D01*
X124103878Y-99264580D01*
X124103286Y-99331044D01*
X124102367Y-99382229D01*
X124101051Y-99419959D01*
X124099269Y-99446060D01*
X124096951Y-99462356D01*
X124094026Y-99470672D01*
X124090424Y-99472832D01*
X124086075Y-99470661D01*
X124084645Y-99469465D01*
X124047573Y-99444315D01*
X123994772Y-99418417D01*
X123932770Y-99394808D01*
X123906357Y-99386539D01*
X123888416Y-99381922D01*
X123867355Y-99378021D01*
X123841089Y-99374752D01*
X123807532Y-99372034D01*
X123764599Y-99369785D01*
X123710204Y-99367923D01*
X123642262Y-99366364D01*
X123558688Y-99365028D01*
X123457395Y-99363831D01*
X123336300Y-99362692D01*
X123291600Y-99362315D01*
X123166449Y-99361298D01*
X123062082Y-99360540D01*
X122976707Y-99360097D01*
X122908533Y-99360030D01*
X122855765Y-99360395D01*
X122816614Y-99361252D01*
X122789285Y-99362659D01*
X122771986Y-99364675D01*
X122762926Y-99367357D01*
X122760312Y-99370764D01*
X122762351Y-99374956D01*
X122766667Y-99379429D01*
X122779602Y-99389784D01*
X122808676Y-99411842D01*
X122851759Y-99444043D01*
X122906718Y-99484826D01*
X122971423Y-99532630D01*
X123043742Y-99585895D01*
X123121544Y-99643060D01*
X123202698Y-99702563D01*
X123285072Y-99762845D01*
X123366536Y-99822345D01*
X123444957Y-99879502D01*
X123518204Y-99932755D01*
X123584147Y-99980543D01*
X123640654Y-100021307D01*
X123685593Y-100053484D01*
X123716834Y-100075515D01*
X123723466Y-100080083D01*
X123760369Y-100103004D01*
X123808359Y-100129812D01*
X123857897Y-100155211D01*
X123864577Y-100158432D01*
X123912772Y-100180110D01*
X123950334Y-100192696D01*
X123986160Y-100198426D01*
X124028200Y-100199544D01*
X124104400Y-100198910D01*
X124104400Y-101353349D01*
X124010669Y-101262185D01*
X123960775Y-101215388D01*
X123904295Y-101165101D01*
X123850026Y-101119056D01*
X123824673Y-101098631D01*
X123785128Y-101068193D01*
X123731916Y-101028138D01*
X123666667Y-100979639D01*
X123591011Y-100923865D01*
X123506577Y-100861989D01*
X123414994Y-100795181D01*
X123317892Y-100724613D01*
X123216901Y-100651455D01*
X123113650Y-100576879D01*
X123009768Y-100502056D01*
X122906885Y-100428157D01*
X122806631Y-100356354D01*
X122710636Y-100287816D01*
X122620527Y-100223716D01*
X122537936Y-100165225D01*
X122464492Y-100113514D01*
X122401824Y-100069753D01*
X122351561Y-100035115D01*
X122315334Y-100010770D01*
X122294771Y-99997889D01*
X122290668Y-99996131D01*
X122279342Y-100004090D01*
X122252162Y-100024885D01*
X122210829Y-100057153D01*
X122157044Y-100099530D01*
X122092506Y-100150653D01*
X122018918Y-100209159D01*
X121937978Y-100273686D01*
X121851388Y-100342869D01*
X121760848Y-100415347D01*
X121668060Y-100489754D01*
X121593702Y-100549483D01*
X121593702Y-101560489D01*
X121606659Y-101566398D01*
X121628908Y-101580728D01*
X121630391Y-101581775D01*
X121660544Y-101600562D01*
X121697375Y-101620209D01*
X121705511Y-101624108D01*
X121713940Y-101627644D01*
X121724059Y-101630770D01*
X121737260Y-101633514D01*
X121754938Y-101635908D01*
X121778484Y-101637981D01*
X121809293Y-101639765D01*
X121848757Y-101641288D01*
X121898269Y-101642581D01*
X121959223Y-101643674D01*
X122033011Y-101644597D01*
X122121028Y-101645381D01*
X122224665Y-101646055D01*
X122345316Y-101646650D01*
X122484374Y-101647195D01*
X122643232Y-101647721D01*
X122822089Y-101648255D01*
X123007207Y-101648794D01*
X123171145Y-101649228D01*
X123315303Y-101649491D01*
X123441079Y-101649516D01*
X123549871Y-101649235D01*
X123643077Y-101648581D01*
X123722097Y-101647486D01*
X123788328Y-101645882D01*
X123843170Y-101643703D01*
X123888021Y-101640881D01*
X123924278Y-101637349D01*
X123953341Y-101633039D01*
X123976609Y-101627883D01*
X123995479Y-101621815D01*
X124011351Y-101614767D01*
X124025622Y-101606671D01*
X124039691Y-101597460D01*
X124052158Y-101588960D01*
X124078452Y-101571824D01*
X124096037Y-101561678D01*
X124099257Y-101560489D01*
X124100334Y-101571396D01*
X124101335Y-101602589D01*
X124102235Y-101651777D01*
X124103010Y-101716667D01*
X124103637Y-101794970D01*
X124104091Y-101884393D01*
X124104349Y-101982644D01*
X124104400Y-102051555D01*
X124104180Y-102156548D01*
X124103548Y-102253390D01*
X124102549Y-102339893D01*
X124101227Y-102413868D01*
X124099626Y-102473126D01*
X124097791Y-102515480D01*
X124095765Y-102538740D01*
X124094493Y-102542622D01*
X124079591Y-102534924D01*
X124071560Y-102526926D01*
X124054434Y-102513754D01*
X124024183Y-102496515D01*
X123999622Y-102484593D01*
X123940711Y-102457955D01*
X122763845Y-102454880D01*
X121586978Y-102451805D01*
X121586978Y-102006147D01*
X121587142Y-101908330D01*
X121587611Y-101817936D01*
X121588347Y-101737370D01*
X121589316Y-101669038D01*
X121590480Y-101615344D01*
X121591803Y-101578695D01*
X121593249Y-101561496D01*
X121593702Y-101560489D01*
X121593702Y-100549483D01*
X121574722Y-100564730D01*
X121482537Y-100638910D01*
X121393204Y-100710931D01*
X121308424Y-100779431D01*
X121229898Y-100843045D01*
X121159326Y-100900412D01*
X121098409Y-100950167D01*
X121048847Y-100990948D01*
X121028178Y-101008112D01*
X120927516Y-101094404D01*
X120844259Y-101171003D01*
X120776438Y-101239817D01*
X120722089Y-101302752D01*
X120714722Y-101312133D01*
X120684117Y-101351644D01*
X120683867Y-100219884D01*
X120731844Y-100225173D01*
X120789188Y-100221870D01*
X120857463Y-100200339D01*
X120937212Y-100160365D01*
X121009495Y-100115057D01*
X121032140Y-100098839D01*
X121069696Y-100070786D01*
X121120021Y-100032570D01*
X121180973Y-99985863D01*
X121250411Y-99932339D01*
X121326194Y-99873669D01*
X121406180Y-99811525D01*
X121488228Y-99747579D01*
X121570196Y-99683505D01*
X121649943Y-99620973D01*
X121725327Y-99561657D01*
X121794207Y-99507229D01*
X121854442Y-99459361D01*
X121903889Y-99419725D01*
X121940408Y-99389994D01*
X121961858Y-99371839D01*
X121965156Y-99368780D01*
X121957149Y-99365921D01*
X121926855Y-99363707D01*
X121874556Y-99362143D01*
X121800531Y-99361233D01*
X121705063Y-99360980D01*
X121588434Y-99361387D01*
X121468445Y-99362296D01*
X121336333Y-99363618D01*
X121224594Y-99365143D01*
X121131025Y-99367119D01*
X121053419Y-99369794D01*
X120989574Y-99373418D01*
X120937283Y-99378239D01*
X120894344Y-99384506D01*
X120858551Y-99392468D01*
X120827700Y-99402373D01*
X120799586Y-99414469D01*
X120772005Y-99429007D01*
X120746966Y-99443689D01*
X120683867Y-99481686D01*
X120683867Y-98421803D01*
X120683867Y-98118966D01*
X120677617Y-98118999D01*
X120575544Y-98119805D01*
X120486633Y-98120830D01*
X120409941Y-98122100D01*
X120344527Y-98123640D01*
X120289449Y-98125476D01*
X120243765Y-98127633D01*
X120206534Y-98130137D01*
X120176813Y-98133013D01*
X120153662Y-98136287D01*
X120136139Y-98139985D01*
X120123301Y-98144131D01*
X120114208Y-98148753D01*
X120107918Y-98153874D01*
X120103488Y-98159522D01*
X120099978Y-98165721D01*
X120096445Y-98172496D01*
X120092876Y-98178492D01*
X120090300Y-98183725D01*
X120087972Y-98191901D01*
X120085878Y-98204114D01*
X120084007Y-98221459D01*
X120082347Y-98245031D01*
X120080884Y-98275923D01*
X120079608Y-98315232D01*
X120078504Y-98364050D01*
X120077561Y-98423473D01*
X120076767Y-98494596D01*
X120076109Y-98578512D01*
X120075575Y-98676317D01*
X120075153Y-98789106D01*
X120074829Y-98917971D01*
X120074592Y-99064009D01*
X120074430Y-99228314D01*
X120074330Y-99411980D01*
X120074280Y-99616103D01*
X120074267Y-99827247D01*
X120074267Y-101447600D01*
X120171054Y-101447600D01*
G36*
X120631071Y-104722429D02*
G01*
X120652245Y-104882570D01*
X120692385Y-105046510D01*
X120751889Y-105216313D01*
X120831154Y-105394043D01*
X120836699Y-105405310D01*
X120864725Y-105463005D01*
X120888802Y-105514552D01*
X120907249Y-105556191D01*
X120918386Y-105584162D01*
X120920933Y-105593733D01*
X120925941Y-105612950D01*
X120930147Y-105617561D01*
X120940580Y-105612458D01*
X120966868Y-105596418D01*
X121006257Y-105571288D01*
X121055991Y-105538914D01*
X121113315Y-105501143D01*
X121175476Y-105459822D01*
X121239718Y-105416798D01*
X121303285Y-105373917D01*
X121363425Y-105333026D01*
X121417380Y-105295971D01*
X121462397Y-105264600D01*
X121495721Y-105240759D01*
X121514597Y-105226294D01*
X121516787Y-105224309D01*
X121512138Y-105214191D01*
X121494962Y-105191850D01*
X121468440Y-105161280D01*
X121453964Y-105145536D01*
X121378682Y-105049047D01*
X121323241Y-104942336D01*
X121288141Y-104826832D01*
X121273880Y-104703962D01*
X121275051Y-104634561D01*
X121292212Y-104513423D01*
X121328094Y-104404205D01*
X121382959Y-104306582D01*
X121457070Y-104220228D01*
X121550688Y-104144815D01*
X121664076Y-104080018D01*
X121750667Y-104042601D01*
X121886366Y-103998748D01*
X122033850Y-103966428D01*
X122189314Y-103945557D01*
X122348956Y-103936051D01*
X122508973Y-103937827D01*
X122665561Y-103950803D01*
X122814918Y-103974894D01*
X122953240Y-104010018D01*
X123076724Y-104056092D01*
X123110978Y-104072373D01*
X123225064Y-104140620D01*
X123321557Y-104221079D01*
X123399670Y-104312570D01*
X123458617Y-104413911D01*
X123497612Y-104523920D01*
X123515868Y-104641415D01*
X123517211Y-104682883D01*
X123506290Y-104804441D01*
X123473474Y-104924878D01*
X123419439Y-105042666D01*
X123344865Y-105156277D01*
X123266539Y-105247685D01*
X123222008Y-105294215D01*
X123519271Y-105475483D01*
X123593433Y-105520580D01*
X123661646Y-105561819D01*
X123721459Y-105597735D01*
X123770420Y-105626866D01*
X123806079Y-105647750D01*
X123825984Y-105658924D01*
X123829079Y-105660375D01*
X123838718Y-105652146D01*
X123855999Y-105626567D01*
X123879283Y-105586873D01*
X123906934Y-105536297D01*
X123937315Y-105478074D01*
X123968790Y-105415437D01*
X123999722Y-105351621D01*
X124028473Y-105289860D01*
X124053408Y-105233388D01*
X124072889Y-105185438D01*
X124081318Y-105161986D01*
X124119133Y-105028221D01*
X124144136Y-104890327D01*
X124157140Y-104742622D01*
X124159468Y-104615833D01*
X124158373Y-104547878D01*
X124156275Y-104482277D01*
X124153434Y-104424847D01*
X124150106Y-104381403D01*
X124148422Y-104367298D01*
X124119587Y-104228284D01*
X124074468Y-104086757D01*
X124015750Y-103949275D01*
X123946120Y-103822394D01*
X123893441Y-103744889D01*
X123785239Y-103617481D01*
X123658671Y-103499178D01*
X123516866Y-103392172D01*
X123362951Y-103298652D01*
X123200053Y-103220810D01*
X123082756Y-103176956D01*
X122899128Y-103126708D01*
X122704581Y-103093209D01*
X122503325Y-103076449D01*
X122299568Y-103076416D01*
X122097521Y-103093101D01*
X121901392Y-103126493D01*
X121715391Y-103176580D01*
X121703803Y-103180397D01*
X121541750Y-103243281D01*
X121393832Y-103320028D01*
X121255865Y-103413242D01*
X121123661Y-103525527D01*
X121078399Y-103569392D01*
X120954457Y-103705534D01*
X120851915Y-103845491D01*
X120769656Y-103991411D01*
X120706564Y-104145442D01*
X120661523Y-104309732D01*
X120644033Y-104405289D01*
X120628466Y-104564023D01*
X120631071Y-104722429D01*
G37*
X120631071Y-104722429D02*
X120652245Y-104882570D01*
X120692385Y-105046510D01*
X120751889Y-105216313D01*
X120831154Y-105394043D01*
X120836699Y-105405310D01*
X120864725Y-105463005D01*
X120888802Y-105514552D01*
X120907249Y-105556191D01*
X120918386Y-105584162D01*
X120920933Y-105593733D01*
X120925941Y-105612950D01*
X120930147Y-105617561D01*
X120940580Y-105612458D01*
X120966868Y-105596418D01*
X121006257Y-105571288D01*
X121055991Y-105538914D01*
X121113315Y-105501143D01*
X121175476Y-105459822D01*
X121239718Y-105416798D01*
X121303285Y-105373917D01*
X121363425Y-105333026D01*
X121417380Y-105295971D01*
X121462397Y-105264600D01*
X121495721Y-105240759D01*
X121514597Y-105226294D01*
X121516787Y-105224309D01*
X121512138Y-105214191D01*
X121494962Y-105191850D01*
X121468440Y-105161280D01*
X121453964Y-105145536D01*
X121378682Y-105049047D01*
X121323241Y-104942336D01*
X121288141Y-104826832D01*
X121273880Y-104703962D01*
X121275051Y-104634561D01*
X121292212Y-104513423D01*
X121328094Y-104404205D01*
X121382959Y-104306582D01*
X121457070Y-104220228D01*
X121550688Y-104144815D01*
X121664076Y-104080018D01*
X121750667Y-104042601D01*
X121886366Y-103998748D01*
X122033850Y-103966428D01*
X122189314Y-103945557D01*
X122348956Y-103936051D01*
X122508973Y-103937827D01*
X122665561Y-103950803D01*
X122814918Y-103974894D01*
X122953240Y-104010018D01*
X123076724Y-104056092D01*
X123110978Y-104072373D01*
X123225064Y-104140620D01*
X123321557Y-104221079D01*
X123399670Y-104312570D01*
X123458617Y-104413911D01*
X123497612Y-104523920D01*
X123515868Y-104641415D01*
X123517211Y-104682883D01*
X123506290Y-104804441D01*
X123473474Y-104924878D01*
X123419439Y-105042666D01*
X123344865Y-105156277D01*
X123266539Y-105247685D01*
X123222008Y-105294215D01*
X123519271Y-105475483D01*
X123593433Y-105520580D01*
X123661646Y-105561819D01*
X123721459Y-105597735D01*
X123770420Y-105626866D01*
X123806079Y-105647750D01*
X123825984Y-105658924D01*
X123829079Y-105660375D01*
X123838718Y-105652146D01*
X123855999Y-105626567D01*
X123879283Y-105586873D01*
X123906934Y-105536297D01*
X123937315Y-105478074D01*
X123968790Y-105415437D01*
X123999722Y-105351621D01*
X124028473Y-105289860D01*
X124053408Y-105233388D01*
X124072889Y-105185438D01*
X124081318Y-105161986D01*
X124119133Y-105028221D01*
X124144136Y-104890327D01*
X124157140Y-104742622D01*
X124159468Y-104615833D01*
X124158373Y-104547878D01*
X124156275Y-104482277D01*
X124153434Y-104424847D01*
X124150106Y-104381403D01*
X124148422Y-104367298D01*
X124119587Y-104228284D01*
X124074468Y-104086757D01*
X124015750Y-103949275D01*
X123946120Y-103822394D01*
X123893441Y-103744889D01*
X123785239Y-103617481D01*
X123658671Y-103499178D01*
X123516866Y-103392172D01*
X123362951Y-103298652D01*
X123200053Y-103220810D01*
X123082756Y-103176956D01*
X122899128Y-103126708D01*
X122704581Y-103093209D01*
X122503325Y-103076449D01*
X122299568Y-103076416D01*
X122097521Y-103093101D01*
X121901392Y-103126493D01*
X121715391Y-103176580D01*
X121703803Y-103180397D01*
X121541750Y-103243281D01*
X121393832Y-103320028D01*
X121255865Y-103413242D01*
X121123661Y-103525527D01*
X121078399Y-103569392D01*
X120954457Y-103705534D01*
X120851915Y-103845491D01*
X120769656Y-103991411D01*
X120706564Y-104145442D01*
X120661523Y-104309732D01*
X120644033Y-104405289D01*
X120628466Y-104564023D01*
X120631071Y-104722429D01*
G36*
X121548552Y-107067574D02*
G01*
X121568567Y-107219492D01*
X121602202Y-107354756D01*
X121649725Y-107474239D01*
X121711405Y-107578815D01*
X121774965Y-107656424D01*
X121849099Y-107725265D01*
X121928871Y-107779006D01*
X122021091Y-107821910D01*
X122064161Y-107837384D01*
X122103142Y-107850244D01*
X122139289Y-107861446D01*
X122174434Y-107871120D01*
X122210410Y-107879396D01*
X122249050Y-107886403D01*
X122292185Y-107892272D01*
X122341649Y-107897131D01*
X122399273Y-107901110D01*
X122466891Y-107904340D01*
X122546334Y-107906949D01*
X122639436Y-107909067D01*
X122748027Y-107910824D01*
X122873942Y-107912349D01*
X123019012Y-107913772D01*
X123161778Y-107915025D01*
X123317968Y-107916351D01*
X123453239Y-107917556D01*
X123569246Y-107918766D01*
X123667645Y-107920106D01*
X123750093Y-107921700D01*
X123818246Y-107923675D01*
X123873760Y-107926156D01*
X123918292Y-107929269D01*
X123953498Y-107933138D01*
X123981034Y-107937889D01*
X124002556Y-107943648D01*
X124019722Y-107950539D01*
X124034186Y-107958689D01*
X124047606Y-107968223D01*
X124061638Y-107979266D01*
X124067071Y-107983566D01*
X124089910Y-107999386D01*
X124105463Y-108006422D01*
X124105922Y-108006444D01*
X124108121Y-107995567D01*
X124110147Y-107964582D01*
X124111942Y-107915957D01*
X124113451Y-107852163D01*
X124114616Y-107775669D01*
X124115380Y-107688944D01*
X124115686Y-107594457D01*
X124115689Y-107583550D01*
X124115689Y-107160657D01*
X124019622Y-107157395D01*
X123923556Y-107154133D01*
X123974543Y-107092044D01*
X124042057Y-106994714D01*
X124096749Y-106884813D01*
X124126978Y-106798349D01*
X124141666Y-106729278D01*
X124151659Y-106645925D01*
X124156646Y-106556159D01*
X124156313Y-106467845D01*
X124150351Y-106388851D01*
X124144638Y-106352622D01*
X124106776Y-106212603D01*
X124051932Y-106086178D01*
X123980924Y-105974260D01*
X123894568Y-105877762D01*
X123793679Y-105797600D01*
X123679076Y-105734687D01*
X123552984Y-105690312D01*
X123496401Y-105677978D01*
X123434202Y-105670368D01*
X123359363Y-105666739D01*
X123325467Y-105666245D01*
X123322282Y-105666310D01*
X123322282Y-106426248D01*
X123397333Y-106435541D01*
X123461160Y-106463728D01*
X123516798Y-106512197D01*
X123521211Y-106517254D01*
X123556037Y-106565548D01*
X123578620Y-106617257D01*
X123590540Y-106677989D01*
X123593383Y-106753352D01*
X123592978Y-106771459D01*
X123590325Y-106825278D01*
X123584909Y-106865308D01*
X123574745Y-106900324D01*
X123557850Y-106939103D01*
X123552672Y-106949745D01*
X123516844Y-107010396D01*
X123474212Y-107057215D01*
X123458973Y-107069952D01*
X123402462Y-107114622D01*
X123206586Y-107114622D01*
X123127939Y-107114086D01*
X123069988Y-107112396D01*
X123030875Y-107109428D01*
X123008741Y-107105057D01*
X123002274Y-107100972D01*
X122999111Y-107085047D01*
X122996488Y-107051264D01*
X122994655Y-107004340D01*
X122993857Y-106948993D01*
X122993842Y-106940106D01*
X122999096Y-106819330D01*
X123015263Y-106716660D01*
X123042961Y-106630106D01*
X123082808Y-106557681D01*
X123129758Y-106502751D01*
X123187645Y-106458204D01*
X123250693Y-106433480D01*
X123322282Y-106426248D01*
X123322282Y-105666310D01*
X123231712Y-105668178D01*
X123152812Y-105676522D01*
X123081590Y-105692768D01*
X123010864Y-105718405D01*
X122958493Y-105742401D01*
X122863196Y-105801020D01*
X122775170Y-105879117D01*
X122696017Y-105974315D01*
X122627340Y-106084238D01*
X122570741Y-106206510D01*
X122527821Y-106338755D01*
X122512882Y-106403422D01*
X122490777Y-106539604D01*
X122476194Y-106688049D01*
X122469813Y-106839505D01*
X122471445Y-106966064D01*
X122478224Y-107127950D01*
X122419245Y-107120530D01*
X122320092Y-107101238D01*
X122239372Y-107070104D01*
X122176466Y-107026269D01*
X122130756Y-106968871D01*
X122101622Y-106897048D01*
X122088447Y-106809941D01*
X122090611Y-106706686D01*
X122094612Y-106668711D01*
X122119780Y-106527520D01*
X122160814Y-106390707D01*
X122198815Y-106296178D01*
X122218190Y-106251018D01*
X122233760Y-106212585D01*
X122243405Y-106186234D01*
X122245452Y-106178546D01*
X122236374Y-106168802D01*
X122207405Y-106152083D01*
X122158217Y-106128232D01*
X122088484Y-106097093D01*
X121997879Y-106058507D01*
X121982089Y-106051910D01*
X121909772Y-106021853D01*
X121844425Y-105994874D01*
X121788906Y-105972136D01*
X121746072Y-105954806D01*
X121718781Y-105944048D01*
X121709942Y-105940941D01*
X121705187Y-105950940D01*
X121699910Y-105977217D01*
X121696231Y-106005489D01*
X121691474Y-106035646D01*
X121682028Y-106083433D01*
X121668820Y-106144612D01*
X121652776Y-106214946D01*
X121634820Y-106290194D01*
X121627797Y-106318755D01*
X121602209Y-106423816D01*
X121582147Y-106511480D01*
X121566969Y-106586068D01*
X121556035Y-106651903D01*
X121548704Y-106713307D01*
X121544335Y-106774602D01*
X121542287Y-106840110D01*
X121541889Y-106898128D01*
X121548552Y-107067574D01*
G37*
X121548552Y-107067574D02*
X121568567Y-107219492D01*
X121602202Y-107354756D01*
X121649725Y-107474239D01*
X121711405Y-107578815D01*
X121774965Y-107656424D01*
X121849099Y-107725265D01*
X121928871Y-107779006D01*
X122021091Y-107821910D01*
X122064161Y-107837384D01*
X122103142Y-107850244D01*
X122139289Y-107861446D01*
X122174434Y-107871120D01*
X122210410Y-107879396D01*
X122249050Y-107886403D01*
X122292185Y-107892272D01*
X122341649Y-107897131D01*
X122399273Y-107901110D01*
X122466891Y-107904340D01*
X122546334Y-107906949D01*
X122639436Y-107909067D01*
X122748027Y-107910824D01*
X122873942Y-107912349D01*
X123019012Y-107913772D01*
X123161778Y-107915025D01*
X123317968Y-107916351D01*
X123453239Y-107917556D01*
X123569246Y-107918766D01*
X123667645Y-107920106D01*
X123750093Y-107921700D01*
X123818246Y-107923675D01*
X123873760Y-107926156D01*
X123918292Y-107929269D01*
X123953498Y-107933138D01*
X123981034Y-107937889D01*
X124002556Y-107943648D01*
X124019722Y-107950539D01*
X124034186Y-107958689D01*
X124047606Y-107968223D01*
X124061638Y-107979266D01*
X124067071Y-107983566D01*
X124089910Y-107999386D01*
X124105463Y-108006422D01*
X124105922Y-108006444D01*
X124108121Y-107995567D01*
X124110147Y-107964582D01*
X124111942Y-107915957D01*
X124113451Y-107852163D01*
X124114616Y-107775669D01*
X124115380Y-107688944D01*
X124115686Y-107594457D01*
X124115689Y-107583550D01*
X124115689Y-107160657D01*
X124019622Y-107157395D01*
X123923556Y-107154133D01*
X123974543Y-107092044D01*
X124042057Y-106994714D01*
X124096749Y-106884813D01*
X124126978Y-106798349D01*
X124141666Y-106729278D01*
X124151659Y-106645925D01*
X124156646Y-106556159D01*
X124156313Y-106467845D01*
X124150351Y-106388851D01*
X124144638Y-106352622D01*
X124106776Y-106212603D01*
X124051932Y-106086178D01*
X123980924Y-105974260D01*
X123894568Y-105877762D01*
X123793679Y-105797600D01*
X123679076Y-105734687D01*
X123552984Y-105690312D01*
X123496401Y-105677978D01*
X123434202Y-105670368D01*
X123359363Y-105666739D01*
X123325467Y-105666245D01*
X123322282Y-105666310D01*
X123322282Y-106426248D01*
X123397333Y-106435541D01*
X123461160Y-106463728D01*
X123516798Y-106512197D01*
X123521211Y-106517254D01*
X123556037Y-106565548D01*
X123578620Y-106617257D01*
X123590540Y-106677989D01*
X123593383Y-106753352D01*
X123592978Y-106771459D01*
X123590325Y-106825278D01*
X123584909Y-106865308D01*
X123574745Y-106900324D01*
X123557850Y-106939103D01*
X123552672Y-106949745D01*
X123516844Y-107010396D01*
X123474212Y-107057215D01*
X123458973Y-107069952D01*
X123402462Y-107114622D01*
X123206586Y-107114622D01*
X123127939Y-107114086D01*
X123069988Y-107112396D01*
X123030875Y-107109428D01*
X123008741Y-107105057D01*
X123002274Y-107100972D01*
X122999111Y-107085047D01*
X122996488Y-107051264D01*
X122994655Y-107004340D01*
X122993857Y-106948993D01*
X122993842Y-106940106D01*
X122999096Y-106819330D01*
X123015263Y-106716660D01*
X123042961Y-106630106D01*
X123082808Y-106557681D01*
X123129758Y-106502751D01*
X123187645Y-106458204D01*
X123250693Y-106433480D01*
X123322282Y-106426248D01*
X123322282Y-105666310D01*
X123231712Y-105668178D01*
X123152812Y-105676522D01*
X123081590Y-105692768D01*
X123010864Y-105718405D01*
X122958493Y-105742401D01*
X122863196Y-105801020D01*
X122775170Y-105879117D01*
X122696017Y-105974315D01*
X122627340Y-106084238D01*
X122570741Y-106206510D01*
X122527821Y-106338755D01*
X122512882Y-106403422D01*
X122490777Y-106539604D01*
X122476194Y-106688049D01*
X122469813Y-106839505D01*
X122471445Y-106966064D01*
X122478224Y-107127950D01*
X122419245Y-107120530D01*
X122320092Y-107101238D01*
X122239372Y-107070104D01*
X122176466Y-107026269D01*
X122130756Y-106968871D01*
X122101622Y-106897048D01*
X122088447Y-106809941D01*
X122090611Y-106706686D01*
X122094612Y-106668711D01*
X122119780Y-106527520D01*
X122160814Y-106390707D01*
X122198815Y-106296178D01*
X122218190Y-106251018D01*
X122233760Y-106212585D01*
X122243405Y-106186234D01*
X122245452Y-106178546D01*
X122236374Y-106168802D01*
X122207405Y-106152083D01*
X122158217Y-106128232D01*
X122088484Y-106097093D01*
X121997879Y-106058507D01*
X121982089Y-106051910D01*
X121909772Y-106021853D01*
X121844425Y-105994874D01*
X121788906Y-105972136D01*
X121746072Y-105954806D01*
X121718781Y-105944048D01*
X121709942Y-105940941D01*
X121705187Y-105950940D01*
X121699910Y-105977217D01*
X121696231Y-106005489D01*
X121691474Y-106035646D01*
X121682028Y-106083433D01*
X121668820Y-106144612D01*
X121652776Y-106214946D01*
X121634820Y-106290194D01*
X121627797Y-106318755D01*
X121602209Y-106423816D01*
X121582147Y-106511480D01*
X121566969Y-106586068D01*
X121556035Y-106651903D01*
X121548704Y-106713307D01*
X121544335Y-106774602D01*
X121542287Y-106840110D01*
X121541889Y-106898128D01*
X121548552Y-107067574D01*
G36*
X122154245Y-110580507D02*
G01*
X122388662Y-110580526D01*
X122601603Y-110580552D01*
X122794168Y-110580625D01*
X122967459Y-110580782D01*
X123122576Y-110581064D01*
X123260620Y-110581509D01*
X123382692Y-110582156D01*
X123489894Y-110583045D01*
X123583326Y-110584213D01*
X123664090Y-110585701D01*
X123733286Y-110587546D01*
X123792015Y-110589789D01*
X123841379Y-110592469D01*
X123882478Y-110595623D01*
X123916413Y-110599292D01*
X123944286Y-110603513D01*
X123967198Y-110608327D01*
X123986249Y-110613773D01*
X124002540Y-110619888D01*
X124017173Y-110626712D01*
X124031249Y-110634285D01*
X124045868Y-110642645D01*
X124054974Y-110647839D01*
X124115689Y-110682104D01*
X124115689Y-109823955D01*
X124019733Y-109823955D01*
X123976370Y-109823224D01*
X123943205Y-109821272D01*
X123925424Y-109818463D01*
X123923778Y-109817221D01*
X123930662Y-109805799D01*
X123948505Y-109783084D01*
X123967879Y-109760385D01*
X124008614Y-109705800D01*
X124049617Y-109636321D01*
X124087123Y-109559270D01*
X124117364Y-109481965D01*
X124127012Y-109451113D01*
X124141578Y-109382616D01*
X124151539Y-109299764D01*
X124156583Y-109210371D01*
X124156396Y-109122248D01*
X124150666Y-109043207D01*
X124144858Y-109005511D01*
X124106797Y-108867414D01*
X124049073Y-108740113D01*
X123972211Y-108624292D01*
X123876739Y-108520637D01*
X123763179Y-108429833D01*
X123652381Y-108363031D01*
X123535625Y-108308164D01*
X123416276Y-108266163D01*
X123290283Y-108236167D01*
X123153594Y-108217311D01*
X123002158Y-108208732D01*
X122924711Y-108208006D01*
X122867934Y-108210100D01*
X122867934Y-109039217D01*
X122961002Y-109039424D01*
X123048692Y-109042337D01*
X123125772Y-109048000D01*
X123187009Y-109056455D01*
X123199350Y-109059038D01*
X123306633Y-109090840D01*
X123393658Y-109132498D01*
X123460642Y-109184363D01*
X123507805Y-109246781D01*
X123535365Y-109320100D01*
X123543541Y-109404669D01*
X123532551Y-109500835D01*
X123516829Y-109564311D01*
X123498639Y-109613454D01*
X123472791Y-109667583D01*
X123449089Y-109708244D01*
X123402721Y-109778800D01*
X122252530Y-109778800D01*
X122208962Y-109711392D01*
X122168040Y-109632867D01*
X122141389Y-109548681D01*
X122129465Y-109463557D01*
X122132722Y-109382216D01*
X122151615Y-109309380D01*
X122167184Y-109277426D01*
X122210181Y-109219501D01*
X122266953Y-109170544D01*
X122339575Y-109129390D01*
X122430121Y-109094874D01*
X122540666Y-109065833D01*
X122546533Y-109064552D01*
X122608788Y-109054381D01*
X122686594Y-109046739D01*
X122774720Y-109041670D01*
X122867934Y-109039217D01*
X122867934Y-108210100D01*
X122711895Y-108215857D01*
X122516059Y-108237802D01*
X122337332Y-108273786D01*
X122175845Y-108323759D01*
X122031726Y-108387668D01*
X121905106Y-108465462D01*
X121796115Y-108557089D01*
X121704883Y-108662497D01*
X121673932Y-108707662D01*
X121617785Y-108808611D01*
X121578174Y-108911901D01*
X121554014Y-109021989D01*
X121544219Y-109143330D01*
X121545265Y-109235836D01*
X121556231Y-109365490D01*
X121578046Y-109478084D01*
X121611714Y-109576875D01*
X121658236Y-109665121D01*
X121692448Y-109713986D01*
X121714362Y-109743353D01*
X121729333Y-109765043D01*
X121733733Y-109773253D01*
X121722904Y-109774868D01*
X121692251Y-109776159D01*
X121644526Y-109777138D01*
X121582479Y-109777817D01*
X121508862Y-109778210D01*
X121426427Y-109778330D01*
X121337925Y-109778188D01*
X121246107Y-109777797D01*
X121153724Y-109777171D01*
X121063528Y-109776320D01*
X120978271Y-109775260D01*
X120900703Y-109774001D01*
X120833576Y-109772556D01*
X120779641Y-109770938D01*
X120741650Y-109769161D01*
X120734667Y-109768669D01*
X120664251Y-109761092D01*
X120609102Y-109749531D01*
X120561981Y-109731792D01*
X120515647Y-109705682D01*
X120506067Y-109699415D01*
X120469378Y-109674983D01*
X120469378Y-110580311D01*
X122154245Y-110580507D01*
G37*
X122154245Y-110580507D02*
X122388662Y-110580526D01*
X122601603Y-110580552D01*
X122794168Y-110580625D01*
X122967459Y-110580782D01*
X123122576Y-110581064D01*
X123260620Y-110581509D01*
X123382692Y-110582156D01*
X123489894Y-110583045D01*
X123583326Y-110584213D01*
X123664090Y-110585701D01*
X123733286Y-110587546D01*
X123792015Y-110589789D01*
X123841379Y-110592469D01*
X123882478Y-110595623D01*
X123916413Y-110599292D01*
X123944286Y-110603513D01*
X123967198Y-110608327D01*
X123986249Y-110613773D01*
X124002540Y-110619888D01*
X124017173Y-110626712D01*
X124031249Y-110634285D01*
X124045868Y-110642645D01*
X124054974Y-110647839D01*
X124115689Y-110682104D01*
X124115689Y-109823955D01*
X124019733Y-109823955D01*
X123976370Y-109823224D01*
X123943205Y-109821272D01*
X123925424Y-109818463D01*
X123923778Y-109817221D01*
X123930662Y-109805799D01*
X123948505Y-109783084D01*
X123967879Y-109760385D01*
X124008614Y-109705800D01*
X124049617Y-109636321D01*
X124087123Y-109559270D01*
X124117364Y-109481965D01*
X124127012Y-109451113D01*
X124141578Y-109382616D01*
X124151539Y-109299764D01*
X124156583Y-109210371D01*
X124156396Y-109122248D01*
X124150666Y-109043207D01*
X124144858Y-109005511D01*
X124106797Y-108867414D01*
X124049073Y-108740113D01*
X123972211Y-108624292D01*
X123876739Y-108520637D01*
X123763179Y-108429833D01*
X123652381Y-108363031D01*
X123535625Y-108308164D01*
X123416276Y-108266163D01*
X123290283Y-108236167D01*
X123153594Y-108217311D01*
X123002158Y-108208732D01*
X122924711Y-108208006D01*
X122867934Y-108210100D01*
X122867934Y-109039217D01*
X122961002Y-109039424D01*
X123048692Y-109042337D01*
X123125772Y-109048000D01*
X123187009Y-109056455D01*
X123199350Y-109059038D01*
X123306633Y-109090840D01*
X123393658Y-109132498D01*
X123460642Y-109184363D01*
X123507805Y-109246781D01*
X123535365Y-109320100D01*
X123543541Y-109404669D01*
X123532551Y-109500835D01*
X123516829Y-109564311D01*
X123498639Y-109613454D01*
X123472791Y-109667583D01*
X123449089Y-109708244D01*
X123402721Y-109778800D01*
X122252530Y-109778800D01*
X122208962Y-109711392D01*
X122168040Y-109632867D01*
X122141389Y-109548681D01*
X122129465Y-109463557D01*
X122132722Y-109382216D01*
X122151615Y-109309380D01*
X122167184Y-109277426D01*
X122210181Y-109219501D01*
X122266953Y-109170544D01*
X122339575Y-109129390D01*
X122430121Y-109094874D01*
X122540666Y-109065833D01*
X122546533Y-109064552D01*
X122608788Y-109054381D01*
X122686594Y-109046739D01*
X122774720Y-109041670D01*
X122867934Y-109039217D01*
X122867934Y-108210100D01*
X122711895Y-108215857D01*
X122516059Y-108237802D01*
X122337332Y-108273786D01*
X122175845Y-108323759D01*
X122031726Y-108387668D01*
X121905106Y-108465462D01*
X121796115Y-108557089D01*
X121704883Y-108662497D01*
X121673932Y-108707662D01*
X121617785Y-108808611D01*
X121578174Y-108911901D01*
X121554014Y-109021989D01*
X121544219Y-109143330D01*
X121545265Y-109235836D01*
X121556231Y-109365490D01*
X121578046Y-109478084D01*
X121611714Y-109576875D01*
X121658236Y-109665121D01*
X121692448Y-109713986D01*
X121714362Y-109743353D01*
X121729333Y-109765043D01*
X121733733Y-109773253D01*
X121722904Y-109774868D01*
X121692251Y-109776159D01*
X121644526Y-109777138D01*
X121582479Y-109777817D01*
X121508862Y-109778210D01*
X121426427Y-109778330D01*
X121337925Y-109778188D01*
X121246107Y-109777797D01*
X121153724Y-109777171D01*
X121063528Y-109776320D01*
X120978271Y-109775260D01*
X120900703Y-109774001D01*
X120833576Y-109772556D01*
X120779641Y-109770938D01*
X120741650Y-109769161D01*
X120734667Y-109768669D01*
X120664251Y-109761092D01*
X120609102Y-109749531D01*
X120561981Y-109731792D01*
X120515647Y-109705682D01*
X120506067Y-109699415D01*
X120469378Y-109674983D01*
X120469378Y-110580311D01*
X122154245Y-110580507D01*
G36*
X119708571Y-102120957D02*
G01*
X119732809Y-102217232D01*
X119775641Y-102303816D01*
X119835419Y-102378627D01*
X119910494Y-102439582D01*
X119999220Y-102484601D01*
X120095530Y-102510864D01*
X120192795Y-102516714D01*
X120286654Y-102501860D01*
X120374511Y-102468160D01*
X120453770Y-102417472D01*
X120521836Y-102351655D01*
X120576112Y-102272566D01*
X120614002Y-102182066D01*
X120626426Y-102130800D01*
X120633947Y-102086302D01*
X120636919Y-102052001D01*
X120635094Y-102019040D01*
X120628225Y-101978566D01*
X120621250Y-101945469D01*
X120589741Y-101852053D01*
X120538617Y-101768381D01*
X120469429Y-101696335D01*
X120383728Y-101637800D01*
X120356489Y-101623852D01*
X120320122Y-101607414D01*
X120289582Y-101597106D01*
X120257450Y-101591540D01*
X120216307Y-101589331D01*
X120170222Y-101589052D01*
X120085865Y-101593139D01*
X120016586Y-101606554D01*
X119955961Y-101631744D01*
X119897567Y-101671154D01*
X119853302Y-101709702D01*
X119787484Y-101781594D01*
X119742053Y-101856687D01*
X119714850Y-101939438D01*
X119704576Y-102017072D01*
X119708571Y-102120957D01*
G37*
X119708571Y-102120957D02*
X119732809Y-102217232D01*
X119775641Y-102303816D01*
X119835419Y-102378627D01*
X119910494Y-102439582D01*
X119999220Y-102484601D01*
X120095530Y-102510864D01*
X120192795Y-102516714D01*
X120286654Y-102501860D01*
X120374511Y-102468160D01*
X120453770Y-102417472D01*
X120521836Y-102351655D01*
X120576112Y-102272566D01*
X120614002Y-102182066D01*
X120626426Y-102130800D01*
X120633947Y-102086302D01*
X120636919Y-102052001D01*
X120635094Y-102019040D01*
X120628225Y-101978566D01*
X120621250Y-101945469D01*
X120589741Y-101852053D01*
X120538617Y-101768381D01*
X120469429Y-101696335D01*
X120383728Y-101637800D01*
X120356489Y-101623852D01*
X120320122Y-101607414D01*
X120289582Y-101597106D01*
X120257450Y-101591540D01*
X120216307Y-101589331D01*
X120170222Y-101589052D01*
X120085865Y-101593139D01*
X120016586Y-101606554D01*
X119955961Y-101631744D01*
X119897567Y-101671154D01*
X119853302Y-101709702D01*
X119787484Y-101781594D01*
X119742053Y-101856687D01*
X119714850Y-101939438D01*
X119704576Y-102017072D01*
X119708571Y-102120957D01*
G36*
X124951066Y-98272629D02*
G01*
X124951467Y-98312111D01*
X124954259Y-98427800D01*
X124962550Y-98524689D01*
X124977232Y-98606081D01*
X124999193Y-98675277D01*
X125029322Y-98735580D01*
X125068510Y-98790292D01*
X125085532Y-98809833D01*
X125125363Y-98842250D01*
X125179413Y-98871480D01*
X125239323Y-98894009D01*
X125296739Y-98906321D01*
X125317956Y-98907600D01*
X125376769Y-98899583D01*
X125441013Y-98878101D01*
X125501821Y-98847001D01*
X125550330Y-98810134D01*
X125556182Y-98804146D01*
X125597321Y-98753421D01*
X125629435Y-98697875D01*
X125653365Y-98634304D01*
X125669953Y-98559506D01*
X125680041Y-98470278D01*
X125684469Y-98363418D01*
X125684845Y-98314472D01*
X125684545Y-98252238D01*
X125683292Y-98208472D01*
X125680554Y-98179069D01*
X125675801Y-98159921D01*
X125668501Y-98146923D01*
X125662267Y-98139955D01*
X125654694Y-98133374D01*
X125644924Y-98128212D01*
X125630340Y-98124297D01*
X125608326Y-98121457D01*
X125576264Y-98119520D01*
X125531536Y-98118316D01*
X125471526Y-98117672D01*
X125393617Y-98117417D01*
X125317956Y-98117378D01*
X125217041Y-98117130D01*
X125136427Y-98117183D01*
X125097822Y-98118143D01*
X125097822Y-98264133D01*
X125538089Y-98264133D01*
X125538004Y-98357266D01*
X125536396Y-98413307D01*
X125532256Y-98472001D01*
X125526464Y-98520972D01*
X125526226Y-98522462D01*
X125507090Y-98601608D01*
X125477287Y-98662998D01*
X125434878Y-98709695D01*
X125388961Y-98739365D01*
X125338026Y-98757647D01*
X125290200Y-98756229D01*
X125238933Y-98735012D01*
X125185899Y-98693511D01*
X125146600Y-98636002D01*
X125120331Y-98561250D01*
X125111035Y-98511292D01*
X125104507Y-98454584D01*
X125099782Y-98394481D01*
X125097817Y-98343361D01*
X125097808Y-98340333D01*
X125097822Y-98264133D01*
X125097822Y-98118143D01*
X125073851Y-98118740D01*
X125027055Y-98123002D01*
X124993778Y-98131170D01*
X124971759Y-98144444D01*
X124958739Y-98164026D01*
X124952457Y-98191117D01*
X124950653Y-98226918D01*
X124951066Y-98272629D01*
G37*
X124951066Y-98272629D02*
X124951467Y-98312111D01*
X124954259Y-98427800D01*
X124962550Y-98524689D01*
X124977232Y-98606081D01*
X124999193Y-98675277D01*
X125029322Y-98735580D01*
X125068510Y-98790292D01*
X125085532Y-98809833D01*
X125125363Y-98842250D01*
X125179413Y-98871480D01*
X125239323Y-98894009D01*
X125296739Y-98906321D01*
X125317956Y-98907600D01*
X125376769Y-98899583D01*
X125441013Y-98878101D01*
X125501821Y-98847001D01*
X125550330Y-98810134D01*
X125556182Y-98804146D01*
X125597321Y-98753421D01*
X125629435Y-98697875D01*
X125653365Y-98634304D01*
X125669953Y-98559506D01*
X125680041Y-98470278D01*
X125684469Y-98363418D01*
X125684845Y-98314472D01*
X125684545Y-98252238D01*
X125683292Y-98208472D01*
X125680554Y-98179069D01*
X125675801Y-98159921D01*
X125668501Y-98146923D01*
X125662267Y-98139955D01*
X125654694Y-98133374D01*
X125644924Y-98128212D01*
X125630340Y-98124297D01*
X125608326Y-98121457D01*
X125576264Y-98119520D01*
X125531536Y-98118316D01*
X125471526Y-98117672D01*
X125393617Y-98117417D01*
X125317956Y-98117378D01*
X125217041Y-98117130D01*
X125136427Y-98117183D01*
X125097822Y-98118143D01*
X125097822Y-98264133D01*
X125538089Y-98264133D01*
X125538004Y-98357266D01*
X125536396Y-98413307D01*
X125532256Y-98472001D01*
X125526464Y-98520972D01*
X125526226Y-98522462D01*
X125507090Y-98601608D01*
X125477287Y-98662998D01*
X125434878Y-98709695D01*
X125388961Y-98739365D01*
X125338026Y-98757647D01*
X125290200Y-98756229D01*
X125238933Y-98735012D01*
X125185899Y-98693511D01*
X125146600Y-98636002D01*
X125120331Y-98561250D01*
X125111035Y-98511292D01*
X125104507Y-98454584D01*
X125099782Y-98394481D01*
X125097817Y-98343361D01*
X125097808Y-98340333D01*
X125097822Y-98264133D01*
X125097822Y-98118143D01*
X125073851Y-98118740D01*
X125027055Y-98123002D01*
X124993778Y-98131170D01*
X124971759Y-98144444D01*
X124958739Y-98164026D01*
X124952457Y-98191117D01*
X124950653Y-98226918D01*
X124951066Y-98272629D01*
G36*
X124951146Y-99681206D02*
G01*
X124951518Y-99750614D01*
X124952385Y-99803003D01*
X124953946Y-99841153D01*
X124956403Y-99867841D01*
X124959957Y-99885847D01*
X124964810Y-99897951D01*
X124971161Y-99906931D01*
X124974084Y-99910182D01*
X125005142Y-99929957D01*
X125040828Y-99933518D01*
X125072510Y-99920509D01*
X125078913Y-99914494D01*
X125085121Y-99904765D01*
X125089910Y-99889099D01*
X125093514Y-99864592D01*
X125096164Y-99828339D01*
X125098095Y-99777435D01*
X125099539Y-99708974D01*
X125100418Y-99646383D01*
X125103467Y-99398666D01*
X125168378Y-99395281D01*
X125233289Y-99391895D01*
X125233289Y-99560042D01*
X125233919Y-99633041D01*
X125236553Y-99686483D01*
X125242309Y-99723372D01*
X125252304Y-99746712D01*
X125267656Y-99759506D01*
X125289482Y-99764758D01*
X125309738Y-99765555D01*
X125334592Y-99763077D01*
X125352906Y-99753723D01*
X125365637Y-99734617D01*
X125373741Y-99702882D01*
X125378176Y-99655641D01*
X125379899Y-99590017D01*
X125380045Y-99554199D01*
X125380045Y-99393022D01*
X125538089Y-99393022D01*
X125538089Y-99641378D01*
X125538202Y-99722787D01*
X125538712Y-99784658D01*
X125539870Y-99830032D01*
X125541930Y-99861946D01*
X125545146Y-99883441D01*
X125549772Y-99897557D01*
X125556059Y-99907332D01*
X125560667Y-99912311D01*
X125587560Y-99929390D01*
X125611467Y-99934889D01*
X125640667Y-99927037D01*
X125662267Y-99912311D01*
X125669066Y-99904454D01*
X125674346Y-99894312D01*
X125678298Y-99879156D01*
X125681113Y-99856259D01*
X125682982Y-99822891D01*
X125684098Y-99776325D01*
X125684651Y-99713833D01*
X125684833Y-99632686D01*
X125684845Y-99590578D01*
X125684765Y-99500402D01*
X125684398Y-99430076D01*
X125683552Y-99376871D01*
X125682036Y-99338060D01*
X125679659Y-99310913D01*
X125676229Y-99292702D01*
X125671554Y-99280700D01*
X125665444Y-99272178D01*
X125662267Y-99268844D01*
X125654670Y-99262245D01*
X125644870Y-99257073D01*
X125630239Y-99253154D01*
X125608152Y-99250316D01*
X125575982Y-99248385D01*
X125531103Y-99247188D01*
X125470889Y-99246552D01*
X125392713Y-99246303D01*
X125319923Y-99246266D01*
X125226707Y-99246300D01*
X125153431Y-99246535D01*
X125097458Y-99247170D01*
X125056151Y-99248406D01*
X125026872Y-99250444D01*
X125006984Y-99253483D01*
X124993850Y-99257723D01*
X124984832Y-99263365D01*
X124977293Y-99270609D01*
X124975612Y-99272394D01*
X124968172Y-99281055D01*
X124962409Y-99291118D01*
X124958112Y-99305375D01*
X124955064Y-99326617D01*
X124953051Y-99357636D01*
X124951860Y-99401223D01*
X124951275Y-99460169D01*
X124951083Y-99537266D01*
X124951067Y-99591999D01*
X124951146Y-99681206D01*
G37*
X124951146Y-99681206D02*
X124951518Y-99750614D01*
X124952385Y-99803003D01*
X124953946Y-99841153D01*
X124956403Y-99867841D01*
X124959957Y-99885847D01*
X124964810Y-99897951D01*
X124971161Y-99906931D01*
X124974084Y-99910182D01*
X125005142Y-99929957D01*
X125040828Y-99933518D01*
X125072510Y-99920509D01*
X125078913Y-99914494D01*
X125085121Y-99904765D01*
X125089910Y-99889099D01*
X125093514Y-99864592D01*
X125096164Y-99828339D01*
X125098095Y-99777435D01*
X125099539Y-99708974D01*
X125100418Y-99646383D01*
X125103467Y-99398666D01*
X125168378Y-99395281D01*
X125233289Y-99391895D01*
X125233289Y-99560042D01*
X125233919Y-99633041D01*
X125236553Y-99686483D01*
X125242309Y-99723372D01*
X125252304Y-99746712D01*
X125267656Y-99759506D01*
X125289482Y-99764758D01*
X125309738Y-99765555D01*
X125334592Y-99763077D01*
X125352906Y-99753723D01*
X125365637Y-99734617D01*
X125373741Y-99702882D01*
X125378176Y-99655641D01*
X125379899Y-99590017D01*
X125380045Y-99554199D01*
X125380045Y-99393022D01*
X125538089Y-99393022D01*
X125538089Y-99641378D01*
X125538202Y-99722787D01*
X125538712Y-99784658D01*
X125539870Y-99830032D01*
X125541930Y-99861946D01*
X125545146Y-99883441D01*
X125549772Y-99897557D01*
X125556059Y-99907332D01*
X125560667Y-99912311D01*
X125587560Y-99929390D01*
X125611467Y-99934889D01*
X125640667Y-99927037D01*
X125662267Y-99912311D01*
X125669066Y-99904454D01*
X125674346Y-99894312D01*
X125678298Y-99879156D01*
X125681113Y-99856259D01*
X125682982Y-99822891D01*
X125684098Y-99776325D01*
X125684651Y-99713833D01*
X125684833Y-99632686D01*
X125684845Y-99590578D01*
X125684765Y-99500402D01*
X125684398Y-99430076D01*
X125683552Y-99376871D01*
X125682036Y-99338060D01*
X125679659Y-99310913D01*
X125676229Y-99292702D01*
X125671554Y-99280700D01*
X125665444Y-99272178D01*
X125662267Y-99268844D01*
X125654670Y-99262245D01*
X125644870Y-99257073D01*
X125630239Y-99253154D01*
X125608152Y-99250316D01*
X125575982Y-99248385D01*
X125531103Y-99247188D01*
X125470889Y-99246552D01*
X125392713Y-99246303D01*
X125319923Y-99246266D01*
X125226707Y-99246300D01*
X125153431Y-99246535D01*
X125097458Y-99247170D01*
X125056151Y-99248406D01*
X125026872Y-99250444D01*
X125006984Y-99253483D01*
X124993850Y-99257723D01*
X124984832Y-99263365D01*
X124977293Y-99270609D01*
X124975612Y-99272394D01*
X124968172Y-99281055D01*
X124962409Y-99291118D01*
X124958112Y-99305375D01*
X124955064Y-99326617D01*
X124953051Y-99357636D01*
X124951860Y-99401223D01*
X124951275Y-99460169D01*
X124951083Y-99537266D01*
X124951067Y-99591999D01*
X124951146Y-99681206D01*
G36*
X124952351Y-100702297D02*
G01*
X124957581Y-100777112D01*
X124965750Y-100846694D01*
X124976550Y-100906998D01*
X124989673Y-100953980D01*
X125004813Y-100983594D01*
X125009269Y-100988140D01*
X125043850Y-101003946D01*
X125079351Y-100999153D01*
X125109725Y-100974636D01*
X125110596Y-100973466D01*
X125119954Y-100959046D01*
X125124876Y-100943992D01*
X125125473Y-100922995D01*
X125121861Y-100890743D01*
X125114154Y-100841927D01*
X125113505Y-100838000D01*
X125104569Y-100765261D01*
X125100161Y-100686783D01*
X125100119Y-100608073D01*
X125104279Y-100534639D01*
X125112479Y-100471989D01*
X125124557Y-100425630D01*
X125125771Y-100422584D01*
X125144615Y-100388952D01*
X125163685Y-100377136D01*
X125182439Y-100386386D01*
X125200337Y-100415953D01*
X125216837Y-100465089D01*
X125231396Y-100533043D01*
X125238406Y-100578355D01*
X125251889Y-100672544D01*
X125264214Y-100747456D01*
X125276449Y-100806283D01*
X125289661Y-100852215D01*
X125304917Y-100888445D01*
X125323285Y-100918162D01*
X125345831Y-100944558D01*
X125367971Y-100965770D01*
X125398819Y-100990935D01*
X125425345Y-101003319D01*
X125458026Y-101007192D01*
X125469995Y-101007333D01*
X125509712Y-101004424D01*
X125539259Y-100992798D01*
X125565486Y-100972677D01*
X125605576Y-100931784D01*
X125636149Y-100886183D01*
X125658203Y-100832487D01*
X125672735Y-100767308D01*
X125680741Y-100687256D01*
X125683218Y-100588943D01*
X125683177Y-100572711D01*
X125681818Y-100507151D01*
X125678730Y-100442134D01*
X125674356Y-100384748D01*
X125669140Y-100342078D01*
X125668541Y-100338628D01*
X125658491Y-100296204D01*
X125645796Y-100260220D01*
X125634190Y-100239850D01*
X125603572Y-100220893D01*
X125567918Y-100219573D01*
X125536144Y-100235915D01*
X125532551Y-100239571D01*
X125521876Y-100254685D01*
X125517276Y-100273585D01*
X125518059Y-100302838D01*
X125522127Y-100338349D01*
X125525762Y-100378030D01*
X125528828Y-100433655D01*
X125531053Y-100498594D01*
X125532164Y-100566215D01*
X125532237Y-100584000D01*
X125531964Y-100651872D01*
X125530646Y-100701546D01*
X125527827Y-100737390D01*
X125523050Y-100763776D01*
X125515857Y-100785074D01*
X125509867Y-100797874D01*
X125493233Y-100826000D01*
X125478168Y-100843932D01*
X125473897Y-100846553D01*
X125456263Y-100841024D01*
X125439192Y-100814740D01*
X125423458Y-100769522D01*
X125409838Y-100707192D01*
X125406804Y-100688829D01*
X125391738Y-100592910D01*
X125379146Y-100516359D01*
X125368111Y-100456220D01*
X125357720Y-100409540D01*
X125347056Y-100373363D01*
X125335205Y-100344735D01*
X125321251Y-100320702D01*
X125304281Y-100298308D01*
X125283378Y-100274598D01*
X125276049Y-100266620D01*
X125248699Y-100238647D01*
X125227029Y-100223840D01*
X125202232Y-100218048D01*
X125170983Y-100217111D01*
X125109705Y-100227425D01*
X125057640Y-100258248D01*
X125014958Y-100309405D01*
X124981825Y-100380717D01*
X124966964Y-100431600D01*
X124957366Y-100486900D01*
X124951936Y-100553147D01*
X124950367Y-100626294D01*
X124952351Y-100702297D01*
G37*
X124952351Y-100702297D02*
X124957581Y-100777112D01*
X124965750Y-100846694D01*
X124976550Y-100906998D01*
X124989673Y-100953980D01*
X125004813Y-100983594D01*
X125009269Y-100988140D01*
X125043850Y-101003946D01*
X125079351Y-100999153D01*
X125109725Y-100974636D01*
X125110596Y-100973466D01*
X125119954Y-100959046D01*
X125124876Y-100943992D01*
X125125473Y-100922995D01*
X125121861Y-100890743D01*
X125114154Y-100841927D01*
X125113505Y-100838000D01*
X125104569Y-100765261D01*
X125100161Y-100686783D01*
X125100119Y-100608073D01*
X125104279Y-100534639D01*
X125112479Y-100471989D01*
X125124557Y-100425630D01*
X125125771Y-100422584D01*
X125144615Y-100388952D01*
X125163685Y-100377136D01*
X125182439Y-100386386D01*
X125200337Y-100415953D01*
X125216837Y-100465089D01*
X125231396Y-100533043D01*
X125238406Y-100578355D01*
X125251889Y-100672544D01*
X125264214Y-100747456D01*
X125276449Y-100806283D01*
X125289661Y-100852215D01*
X125304917Y-100888445D01*
X125323285Y-100918162D01*
X125345831Y-100944558D01*
X125367971Y-100965770D01*
X125398819Y-100990935D01*
X125425345Y-101003319D01*
X125458026Y-101007192D01*
X125469995Y-101007333D01*
X125509712Y-101004424D01*
X125539259Y-100992798D01*
X125565486Y-100972677D01*
X125605576Y-100931784D01*
X125636149Y-100886183D01*
X125658203Y-100832487D01*
X125672735Y-100767308D01*
X125680741Y-100687256D01*
X125683218Y-100588943D01*
X125683177Y-100572711D01*
X125681818Y-100507151D01*
X125678730Y-100442134D01*
X125674356Y-100384748D01*
X125669140Y-100342078D01*
X125668541Y-100338628D01*
X125658491Y-100296204D01*
X125645796Y-100260220D01*
X125634190Y-100239850D01*
X125603572Y-100220893D01*
X125567918Y-100219573D01*
X125536144Y-100235915D01*
X125532551Y-100239571D01*
X125521876Y-100254685D01*
X125517276Y-100273585D01*
X125518059Y-100302838D01*
X125522127Y-100338349D01*
X125525762Y-100378030D01*
X125528828Y-100433655D01*
X125531053Y-100498594D01*
X125532164Y-100566215D01*
X125532237Y-100584000D01*
X125531964Y-100651872D01*
X125530646Y-100701546D01*
X125527827Y-100737390D01*
X125523050Y-100763776D01*
X125515857Y-100785074D01*
X125509867Y-100797874D01*
X125493233Y-100826000D01*
X125478168Y-100843932D01*
X125473897Y-100846553D01*
X125456263Y-100841024D01*
X125439192Y-100814740D01*
X125423458Y-100769522D01*
X125409838Y-100707192D01*
X125406804Y-100688829D01*
X125391738Y-100592910D01*
X125379146Y-100516359D01*
X125368111Y-100456220D01*
X125357720Y-100409540D01*
X125347056Y-100373363D01*
X125335205Y-100344735D01*
X125321251Y-100320702D01*
X125304281Y-100298308D01*
X125283378Y-100274598D01*
X125276049Y-100266620D01*
X125248699Y-100238647D01*
X125227029Y-100223840D01*
X125202232Y-100218048D01*
X125170983Y-100217111D01*
X125109705Y-100227425D01*
X125057640Y-100258248D01*
X125014958Y-100309405D01*
X124981825Y-100380717D01*
X124966964Y-100431600D01*
X124957366Y-100486900D01*
X124951936Y-100553147D01*
X124950367Y-100626294D01*
X124952351Y-100702297D01*
G36*
X124973645Y-101470178D02*
G01*
X124981218Y-101476758D01*
X124990987Y-101481921D01*
X125005571Y-101485836D01*
X125027585Y-101488676D01*
X125059648Y-101490613D01*
X125104375Y-101491817D01*
X125164385Y-101492461D01*
X125242294Y-101492716D01*
X125317956Y-101492755D01*
X125411802Y-101492686D01*
X125485689Y-101492362D01*
X125542232Y-101491614D01*
X125584049Y-101490268D01*
X125613757Y-101488154D01*
X125633973Y-101485100D01*
X125647314Y-101480934D01*
X125656398Y-101475484D01*
X125662267Y-101470178D01*
X125681947Y-101437174D01*
X125680181Y-101402009D01*
X125658717Y-101370545D01*
X125650337Y-101363316D01*
X125640614Y-101357666D01*
X125626861Y-101353401D01*
X125606389Y-101350327D01*
X125576512Y-101348248D01*
X125534541Y-101346970D01*
X125477789Y-101346299D01*
X125403567Y-101346041D01*
X125319537Y-101346000D01*
X125006485Y-101346000D01*
X124978776Y-101373709D01*
X124955463Y-101407863D01*
X124954623Y-101440994D01*
X124973645Y-101470178D01*
G37*
X124973645Y-101470178D02*
X124981218Y-101476758D01*
X124990987Y-101481921D01*
X125005571Y-101485836D01*
X125027585Y-101488676D01*
X125059648Y-101490613D01*
X125104375Y-101491817D01*
X125164385Y-101492461D01*
X125242294Y-101492716D01*
X125317956Y-101492755D01*
X125411802Y-101492686D01*
X125485689Y-101492362D01*
X125542232Y-101491614D01*
X125584049Y-101490268D01*
X125613757Y-101488154D01*
X125633973Y-101485100D01*
X125647314Y-101480934D01*
X125656398Y-101475484D01*
X125662267Y-101470178D01*
X125681947Y-101437174D01*
X125680181Y-101402009D01*
X125658717Y-101370545D01*
X125650337Y-101363316D01*
X125640614Y-101357666D01*
X125626861Y-101353401D01*
X125606389Y-101350327D01*
X125576512Y-101348248D01*
X125534541Y-101346970D01*
X125477789Y-101346299D01*
X125403567Y-101346041D01*
X125319537Y-101346000D01*
X125006485Y-101346000D01*
X124978776Y-101373709D01*
X124955463Y-101407863D01*
X124954623Y-101440994D01*
X124973645Y-101470178D01*
G36*
X124956599Y-102443919D02*
G01*
X124968095Y-102512435D01*
X124985967Y-102565057D01*
X125009499Y-102599292D01*
X125022924Y-102608621D01*
X125054148Y-102618107D01*
X125082395Y-102611723D01*
X125109182Y-102591570D01*
X125121713Y-102560255D01*
X125120696Y-102514817D01*
X125113906Y-102479674D01*
X125100971Y-102401581D01*
X125099742Y-102321774D01*
X125110241Y-102232445D01*
X125114690Y-102207771D01*
X125138108Y-102124709D01*
X125172945Y-102059727D01*
X125218604Y-102013539D01*
X125274494Y-101986855D01*
X125303388Y-101981337D01*
X125362012Y-101984949D01*
X125413879Y-102008271D01*
X125457978Y-102049176D01*
X125493299Y-102105541D01*
X125518829Y-102175240D01*
X125533559Y-102256148D01*
X125536478Y-102346140D01*
X125526575Y-102443090D01*
X125525641Y-102448564D01*
X125518459Y-102487125D01*
X125511521Y-102508506D01*
X125501227Y-102517773D01*
X125483976Y-102519994D01*
X125474841Y-102520044D01*
X125436489Y-102520044D01*
X125436489Y-102451569D01*
X125432347Y-102391100D01*
X125419147Y-102349835D01*
X125395730Y-102325825D01*
X125360936Y-102317123D01*
X125356394Y-102317017D01*
X125326654Y-102322108D01*
X125305419Y-102339567D01*
X125291366Y-102372061D01*
X125283173Y-102422257D01*
X125280161Y-102470877D01*
X125278433Y-102541544D01*
X125281070Y-102592802D01*
X125290800Y-102627761D01*
X125310353Y-102649530D01*
X125342456Y-102661220D01*
X125389838Y-102665940D01*
X125452071Y-102666800D01*
X125521535Y-102665391D01*
X125568786Y-102661152D01*
X125594012Y-102654064D01*
X125595988Y-102652689D01*
X125627508Y-102613772D01*
X125652470Y-102556714D01*
X125670340Y-102485131D01*
X125680586Y-102402642D01*
X125682673Y-102312861D01*
X125676068Y-102219408D01*
X125667956Y-102164444D01*
X125643554Y-102078234D01*
X125603662Y-101998108D01*
X125551887Y-101931023D01*
X125541539Y-101920827D01*
X125498035Y-101887698D01*
X125444118Y-101857806D01*
X125387592Y-101834643D01*
X125336259Y-101821702D01*
X125316544Y-101820142D01*
X125275419Y-101826782D01*
X125224252Y-101844432D01*
X125170394Y-101869703D01*
X125121195Y-101899211D01*
X125088334Y-101925281D01*
X125039452Y-101986235D01*
X125000545Y-102065031D01*
X124972494Y-102158843D01*
X124956179Y-102264850D01*
X124952192Y-102362000D01*
X124956599Y-102443919D01*
G37*
X124956599Y-102443919D02*
X124968095Y-102512435D01*
X124985967Y-102565057D01*
X125009499Y-102599292D01*
X125022924Y-102608621D01*
X125054148Y-102618107D01*
X125082395Y-102611723D01*
X125109182Y-102591570D01*
X125121713Y-102560255D01*
X125120696Y-102514817D01*
X125113906Y-102479674D01*
X125100971Y-102401581D01*
X125099742Y-102321774D01*
X125110241Y-102232445D01*
X125114690Y-102207771D01*
X125138108Y-102124709D01*
X125172945Y-102059727D01*
X125218604Y-102013539D01*
X125274494Y-101986855D01*
X125303388Y-101981337D01*
X125362012Y-101984949D01*
X125413879Y-102008271D01*
X125457978Y-102049176D01*
X125493299Y-102105541D01*
X125518829Y-102175240D01*
X125533559Y-102256148D01*
X125536478Y-102346140D01*
X125526575Y-102443090D01*
X125525641Y-102448564D01*
X125518459Y-102487125D01*
X125511521Y-102508506D01*
X125501227Y-102517773D01*
X125483976Y-102519994D01*
X125474841Y-102520044D01*
X125436489Y-102520044D01*
X125436489Y-102451569D01*
X125432347Y-102391100D01*
X125419147Y-102349835D01*
X125395730Y-102325825D01*
X125360936Y-102317123D01*
X125356394Y-102317017D01*
X125326654Y-102322108D01*
X125305419Y-102339567D01*
X125291366Y-102372061D01*
X125283173Y-102422257D01*
X125280161Y-102470877D01*
X125278433Y-102541544D01*
X125281070Y-102592802D01*
X125290800Y-102627761D01*
X125310353Y-102649530D01*
X125342456Y-102661220D01*
X125389838Y-102665940D01*
X125452071Y-102666800D01*
X125521535Y-102665391D01*
X125568786Y-102661152D01*
X125594012Y-102654064D01*
X125595988Y-102652689D01*
X125627508Y-102613772D01*
X125652470Y-102556714D01*
X125670340Y-102485131D01*
X125680586Y-102402642D01*
X125682673Y-102312861D01*
X125676068Y-102219408D01*
X125667956Y-102164444D01*
X125643554Y-102078234D01*
X125603662Y-101998108D01*
X125551887Y-101931023D01*
X125541539Y-101920827D01*
X125498035Y-101887698D01*
X125444118Y-101857806D01*
X125387592Y-101834643D01*
X125336259Y-101821702D01*
X125316544Y-101820142D01*
X125275419Y-101826782D01*
X125224252Y-101844432D01*
X125170394Y-101869703D01*
X125121195Y-101899211D01*
X125088334Y-101925281D01*
X125039452Y-101986235D01*
X125000545Y-102065031D01*
X124972494Y-102158843D01*
X124956179Y-102264850D01*
X124952192Y-102362000D01*
X124956599Y-102443919D01*
G36*
X124955448Y-103093886D02*
G01*
X124969273Y-103117452D01*
X124991881Y-103148265D01*
X125024338Y-103187922D01*
X125067708Y-103238020D01*
X125123058Y-103300157D01*
X125191451Y-103375928D01*
X125270084Y-103462666D01*
X125433878Y-103643289D01*
X125214029Y-103648933D01*
X125138351Y-103650971D01*
X125081994Y-103652937D01*
X125041706Y-103655266D01*
X125014235Y-103658394D01*
X124996329Y-103662755D01*
X124984737Y-103668784D01*
X124976208Y-103676916D01*
X124972623Y-103681228D01*
X124953670Y-103715759D01*
X124956441Y-103748617D01*
X124972633Y-103774682D01*
X124994199Y-103801333D01*
X125309151Y-103804648D01*
X125401779Y-103805565D01*
X125474544Y-103806032D01*
X125530161Y-103805887D01*
X125571342Y-103804968D01*
X125600803Y-103803113D01*
X125621255Y-103800161D01*
X125635413Y-103795950D01*
X125645991Y-103790318D01*
X125654474Y-103784073D01*
X125670207Y-103770561D01*
X125680636Y-103757117D01*
X125684639Y-103741876D01*
X125681094Y-103722974D01*
X125668879Y-103698545D01*
X125646871Y-103666727D01*
X125613949Y-103625652D01*
X125568991Y-103573458D01*
X125510875Y-103508278D01*
X125444099Y-103434444D01*
X125203458Y-103169155D01*
X125422589Y-103163511D01*
X125498128Y-103161469D01*
X125554354Y-103159498D01*
X125594524Y-103157161D01*
X125621896Y-103154019D01*
X125639728Y-103149636D01*
X125651279Y-103143576D01*
X125659807Y-103135400D01*
X125663282Y-103131216D01*
X125682372Y-103094235D01*
X125679493Y-103059292D01*
X125655100Y-103028864D01*
X125645286Y-103021903D01*
X125633826Y-103016477D01*
X125617968Y-103012397D01*
X125594963Y-103009471D01*
X125562062Y-103007508D01*
X125516516Y-103006317D01*
X125455573Y-103005708D01*
X125376486Y-103005489D01*
X125317956Y-103005466D01*
X125226407Y-103005540D01*
X125154687Y-103005887D01*
X125100045Y-103006699D01*
X125059732Y-103008167D01*
X125030998Y-103010481D01*
X125011093Y-103013833D01*
X124997268Y-103018412D01*
X124986772Y-103024411D01*
X124980811Y-103028864D01*
X124966691Y-103040150D01*
X124956029Y-103050699D01*
X124949892Y-103062107D01*
X124949343Y-103075970D01*
X124955448Y-103093886D01*
G37*
X124955448Y-103093886D02*
X124969273Y-103117452D01*
X124991881Y-103148265D01*
X125024338Y-103187922D01*
X125067708Y-103238020D01*
X125123058Y-103300157D01*
X125191451Y-103375928D01*
X125270084Y-103462666D01*
X125433878Y-103643289D01*
X125214029Y-103648933D01*
X125138351Y-103650971D01*
X125081994Y-103652937D01*
X125041706Y-103655266D01*
X125014235Y-103658394D01*
X124996329Y-103662755D01*
X124984737Y-103668784D01*
X124976208Y-103676916D01*
X124972623Y-103681228D01*
X124953670Y-103715759D01*
X124956441Y-103748617D01*
X124972633Y-103774682D01*
X124994199Y-103801333D01*
X125309151Y-103804648D01*
X125401779Y-103805565D01*
X125474544Y-103806032D01*
X125530161Y-103805887D01*
X125571342Y-103804968D01*
X125600803Y-103803113D01*
X125621255Y-103800161D01*
X125635413Y-103795950D01*
X125645991Y-103790318D01*
X125654474Y-103784073D01*
X125670207Y-103770561D01*
X125680636Y-103757117D01*
X125684639Y-103741876D01*
X125681094Y-103722974D01*
X125668879Y-103698545D01*
X125646871Y-103666727D01*
X125613949Y-103625652D01*
X125568991Y-103573458D01*
X125510875Y-103508278D01*
X125444099Y-103434444D01*
X125203458Y-103169155D01*
X125422589Y-103163511D01*
X125498128Y-103161469D01*
X125554354Y-103159498D01*
X125594524Y-103157161D01*
X125621896Y-103154019D01*
X125639728Y-103149636D01*
X125651279Y-103143576D01*
X125659807Y-103135400D01*
X125663282Y-103131216D01*
X125682372Y-103094235D01*
X125679493Y-103059292D01*
X125655100Y-103028864D01*
X125645286Y-103021903D01*
X125633826Y-103016477D01*
X125617968Y-103012397D01*
X125594963Y-103009471D01*
X125562062Y-103007508D01*
X125516516Y-103006317D01*
X125455573Y-103005708D01*
X125376486Y-103005489D01*
X125317956Y-103005466D01*
X125226407Y-103005540D01*
X125154687Y-103005887D01*
X125100045Y-103006699D01*
X125059732Y-103008167D01*
X125030998Y-103010481D01*
X125011093Y-103013833D01*
X124997268Y-103018412D01*
X124986772Y-103024411D01*
X124980811Y-103028864D01*
X124966691Y-103040150D01*
X124956029Y-103050699D01*
X124949892Y-103062107D01*
X124949343Y-103075970D01*
X124955448Y-103093886D01*
G36*
X124951260Y-104624343D02*
G01*
X124952174Y-104700701D01*
X124954311Y-104759217D01*
X124958175Y-104802255D01*
X124964267Y-104832183D01*
X124973090Y-104851368D01*
X124985146Y-104862176D01*
X125000939Y-104866973D01*
X125020970Y-104868127D01*
X125023335Y-104868133D01*
X125045992Y-104867131D01*
X125063503Y-104862396D01*
X125076574Y-104851333D01*
X125085913Y-104831348D01*
X125092227Y-104799846D01*
X125096222Y-104754232D01*
X125098606Y-104691913D01*
X125100086Y-104610293D01*
X125100414Y-104585277D01*
X125103467Y-104343200D01*
X125168378Y-104339814D01*
X125233289Y-104336429D01*
X125233289Y-104504576D01*
X125233531Y-104570266D01*
X125234556Y-104617172D01*
X125236811Y-104649083D01*
X125240742Y-104669791D01*
X125246798Y-104683084D01*
X125255424Y-104692755D01*
X125255493Y-104692817D01*
X125289112Y-104710356D01*
X125325448Y-104709722D01*
X125356423Y-104691314D01*
X125359607Y-104687671D01*
X125367812Y-104674741D01*
X125373521Y-104657024D01*
X125377162Y-104630570D01*
X125379167Y-104591432D01*
X125379964Y-104535662D01*
X125380045Y-104499994D01*
X125380045Y-104337555D01*
X125538089Y-104337555D01*
X125538089Y-104584161D01*
X125538231Y-104665580D01*
X125538814Y-104727410D01*
X125540068Y-104772637D01*
X125542227Y-104804248D01*
X125545523Y-104825231D01*
X125550189Y-104838573D01*
X125556457Y-104847261D01*
X125558733Y-104849450D01*
X125590280Y-104865614D01*
X125626168Y-104866797D01*
X125657285Y-104853536D01*
X125667271Y-104843043D01*
X125672769Y-104832129D01*
X125677022Y-104815217D01*
X125680180Y-104789633D01*
X125682392Y-104752701D01*
X125683806Y-104701746D01*
X125684572Y-104634094D01*
X125684838Y-104547069D01*
X125684845Y-104527394D01*
X125684787Y-104438911D01*
X125684467Y-104370227D01*
X125683667Y-104318564D01*
X125682167Y-104281145D01*
X125679749Y-104255190D01*
X125676194Y-104237922D01*
X125671282Y-104226562D01*
X125664795Y-104218332D01*
X125660138Y-104213817D01*
X125651889Y-104207021D01*
X125641669Y-104201712D01*
X125626800Y-104197706D01*
X125604602Y-104194821D01*
X125572393Y-104192874D01*
X125527496Y-104191681D01*
X125467228Y-104191061D01*
X125388911Y-104190829D01*
X125322994Y-104190800D01*
X125230628Y-104190871D01*
X125158117Y-104191208D01*
X125102737Y-104191998D01*
X125061765Y-104193426D01*
X125032478Y-104195679D01*
X125012153Y-104198943D01*
X124998066Y-104203404D01*
X124987495Y-104209248D01*
X124980811Y-104214197D01*
X124951067Y-104237594D01*
X124951067Y-104527774D01*
X124951260Y-104624343D01*
G37*
X124951260Y-104624343D02*
X124952174Y-104700701D01*
X124954311Y-104759217D01*
X124958175Y-104802255D01*
X124964267Y-104832183D01*
X124973090Y-104851368D01*
X124985146Y-104862176D01*
X125000939Y-104866973D01*
X125020970Y-104868127D01*
X125023335Y-104868133D01*
X125045992Y-104867131D01*
X125063503Y-104862396D01*
X125076574Y-104851333D01*
X125085913Y-104831348D01*
X125092227Y-104799846D01*
X125096222Y-104754232D01*
X125098606Y-104691913D01*
X125100086Y-104610293D01*
X125100414Y-104585277D01*
X125103467Y-104343200D01*
X125168378Y-104339814D01*
X125233289Y-104336429D01*
X125233289Y-104504576D01*
X125233531Y-104570266D01*
X125234556Y-104617172D01*
X125236811Y-104649083D01*
X125240742Y-104669791D01*
X125246798Y-104683084D01*
X125255424Y-104692755D01*
X125255493Y-104692817D01*
X125289112Y-104710356D01*
X125325448Y-104709722D01*
X125356423Y-104691314D01*
X125359607Y-104687671D01*
X125367812Y-104674741D01*
X125373521Y-104657024D01*
X125377162Y-104630570D01*
X125379167Y-104591432D01*
X125379964Y-104535662D01*
X125380045Y-104499994D01*
X125380045Y-104337555D01*
X125538089Y-104337555D01*
X125538089Y-104584161D01*
X125538231Y-104665580D01*
X125538814Y-104727410D01*
X125540068Y-104772637D01*
X125542227Y-104804248D01*
X125545523Y-104825231D01*
X125550189Y-104838573D01*
X125556457Y-104847261D01*
X125558733Y-104849450D01*
X125590280Y-104865614D01*
X125626168Y-104866797D01*
X125657285Y-104853536D01*
X125667271Y-104843043D01*
X125672769Y-104832129D01*
X125677022Y-104815217D01*
X125680180Y-104789633D01*
X125682392Y-104752701D01*
X125683806Y-104701746D01*
X125684572Y-104634094D01*
X125684838Y-104547069D01*
X125684845Y-104527394D01*
X125684787Y-104438911D01*
X125684467Y-104370227D01*
X125683667Y-104318564D01*
X125682167Y-104281145D01*
X125679749Y-104255190D01*
X125676194Y-104237922D01*
X125671282Y-104226562D01*
X125664795Y-104218332D01*
X125660138Y-104213817D01*
X125651889Y-104207021D01*
X125641669Y-104201712D01*
X125626800Y-104197706D01*
X125604602Y-104194821D01*
X125572393Y-104192874D01*
X125527496Y-104191681D01*
X125467228Y-104191061D01*
X125388911Y-104190829D01*
X125322994Y-104190800D01*
X125230628Y-104190871D01*
X125158117Y-104191208D01*
X125102737Y-104191998D01*
X125061765Y-104193426D01*
X125032478Y-104195679D01*
X125012153Y-104198943D01*
X124998066Y-104203404D01*
X124987495Y-104209248D01*
X124980811Y-104214197D01*
X124951067Y-104237594D01*
X124951067Y-104527774D01*
X124951260Y-104624343D01*
G36*
X124951275Y-105412309D02*
G01*
X124955636Y-105541288D01*
X124968861Y-105650991D01*
X124991741Y-105743226D01*
X125025070Y-105819802D01*
X125069638Y-105882527D01*
X125126236Y-105933212D01*
X125195658Y-105973663D01*
X125197351Y-105974459D01*
X125259483Y-105998601D01*
X125314509Y-106007203D01*
X125369887Y-106000231D01*
X125433073Y-105977654D01*
X125442689Y-105973372D01*
X125498966Y-105944172D01*
X125542451Y-105911356D01*
X125579417Y-105869002D01*
X125616135Y-105811190D01*
X125618052Y-105807831D01*
X125642227Y-105757504D01*
X125660282Y-105700621D01*
X125672839Y-105633527D01*
X125680522Y-105552565D01*
X125683953Y-105454082D01*
X125684251Y-105419286D01*
X125684845Y-105253594D01*
X125655100Y-105230197D01*
X125645319Y-105223257D01*
X125633897Y-105217842D01*
X125618095Y-105213765D01*
X125595175Y-105210837D01*
X125562396Y-105208867D01*
X125538089Y-105208225D01*
X125538089Y-105364844D01*
X125538089Y-105458726D01*
X125536483Y-105513664D01*
X125532255Y-105570060D01*
X125526292Y-105616345D01*
X125525790Y-105619139D01*
X125503736Y-105701348D01*
X125470600Y-105765114D01*
X125424847Y-105812452D01*
X125364939Y-105845382D01*
X125349061Y-105851108D01*
X125324333Y-105856721D01*
X125299902Y-105854291D01*
X125267400Y-105842467D01*
X125251434Y-105835340D01*
X125209006Y-105812000D01*
X125179240Y-105783880D01*
X125158511Y-105752940D01*
X125131537Y-105690966D01*
X125111998Y-105611651D01*
X125100746Y-105519253D01*
X125098270Y-105452333D01*
X125097822Y-105364844D01*
X125538089Y-105364844D01*
X125538089Y-105208225D01*
X125517021Y-105207668D01*
X125456311Y-105207050D01*
X125377526Y-105206825D01*
X125315920Y-105206800D01*
X125006485Y-105206800D01*
X124978776Y-105234509D01*
X124967544Y-105246806D01*
X124959853Y-105260103D01*
X124955040Y-105278672D01*
X124952446Y-105306786D01*
X124951410Y-105348717D01*
X124951270Y-105408737D01*
X124951275Y-105412309D01*
G37*
X124951275Y-105412309D02*
X124955636Y-105541288D01*
X124968861Y-105650991D01*
X124991741Y-105743226D01*
X125025070Y-105819802D01*
X125069638Y-105882527D01*
X125126236Y-105933212D01*
X125195658Y-105973663D01*
X125197351Y-105974459D01*
X125259483Y-105998601D01*
X125314509Y-106007203D01*
X125369887Y-106000231D01*
X125433073Y-105977654D01*
X125442689Y-105973372D01*
X125498966Y-105944172D01*
X125542451Y-105911356D01*
X125579417Y-105869002D01*
X125616135Y-105811190D01*
X125618052Y-105807831D01*
X125642227Y-105757504D01*
X125660282Y-105700621D01*
X125672839Y-105633527D01*
X125680522Y-105552565D01*
X125683953Y-105454082D01*
X125684251Y-105419286D01*
X125684845Y-105253594D01*
X125655100Y-105230197D01*
X125645319Y-105223257D01*
X125633897Y-105217842D01*
X125618095Y-105213765D01*
X125595175Y-105210837D01*
X125562396Y-105208867D01*
X125538089Y-105208225D01*
X125538089Y-105364844D01*
X125538089Y-105458726D01*
X125536483Y-105513664D01*
X125532255Y-105570060D01*
X125526292Y-105616345D01*
X125525790Y-105619139D01*
X125503736Y-105701348D01*
X125470600Y-105765114D01*
X125424847Y-105812452D01*
X125364939Y-105845382D01*
X125349061Y-105851108D01*
X125324333Y-105856721D01*
X125299902Y-105854291D01*
X125267400Y-105842467D01*
X125251434Y-105835340D01*
X125209006Y-105812000D01*
X125179240Y-105783880D01*
X125158511Y-105752940D01*
X125131537Y-105690966D01*
X125111998Y-105611651D01*
X125100746Y-105519253D01*
X125098270Y-105452333D01*
X125097822Y-105364844D01*
X125538089Y-105364844D01*
X125538089Y-105208225D01*
X125517021Y-105207668D01*
X125456311Y-105207050D01*
X125377526Y-105206825D01*
X125315920Y-105206800D01*
X125006485Y-105206800D01*
X124978776Y-105234509D01*
X124967544Y-105246806D01*
X124959853Y-105260103D01*
X124955040Y-105278672D01*
X124952446Y-105306786D01*
X124951410Y-105348717D01*
X124951270Y-105408737D01*
X124951275Y-105412309D01*
G36*
X124953034Y-108138665D02*
G01*
X124960035Y-108158255D01*
X124960377Y-108159010D01*
X124980678Y-108185613D01*
X125001561Y-108200270D01*
X125011352Y-108203138D01*
X125024361Y-108202996D01*
X125042895Y-108198961D01*
X125069257Y-108190146D01*
X125105752Y-108175669D01*
X125154687Y-108154645D01*
X125218365Y-108126188D01*
X125299093Y-108089415D01*
X125343216Y-108069175D01*
X125421985Y-108032625D01*
X125494423Y-107998315D01*
X125557880Y-107967552D01*
X125609708Y-107941648D01*
X125647259Y-107921910D01*
X125667884Y-107909650D01*
X125670733Y-107907224D01*
X125683302Y-107876183D01*
X125681619Y-107841121D01*
X125666332Y-107813000D01*
X125665089Y-107811854D01*
X125648154Y-107800668D01*
X125615170Y-107781904D01*
X125570380Y-107757875D01*
X125518032Y-107730897D01*
X125498742Y-107721201D01*
X125352150Y-107648014D01*
X125511393Y-107568240D01*
X125566415Y-107539767D01*
X125614132Y-107513350D01*
X125650893Y-107491148D01*
X125673044Y-107475319D01*
X125677741Y-107469954D01*
X125684102Y-107428257D01*
X125670733Y-107393849D01*
X125656446Y-107383728D01*
X125624692Y-107366214D01*
X125578597Y-107342735D01*
X125521285Y-107314720D01*
X125455880Y-107283599D01*
X125385507Y-107250799D01*
X125313291Y-107217750D01*
X125242355Y-107185881D01*
X125175825Y-107156619D01*
X125116826Y-107131395D01*
X125068481Y-107111636D01*
X125033915Y-107098772D01*
X125016253Y-107094231D01*
X125015613Y-107094277D01*
X124993388Y-107105326D01*
X124970753Y-107127410D01*
X124969768Y-107128710D01*
X124954425Y-107155853D01*
X124954574Y-107180958D01*
X124957466Y-107190368D01*
X124963718Y-107201834D01*
X124976014Y-107214010D01*
X124996908Y-107228357D01*
X125028949Y-107246336D01*
X125074688Y-107269407D01*
X125136677Y-107299030D01*
X125193898Y-107325745D01*
X125260226Y-107356480D01*
X125319874Y-107384021D01*
X125369725Y-107406938D01*
X125406664Y-107423798D01*
X125427573Y-107433173D01*
X125430845Y-107434540D01*
X125425497Y-107440689D01*
X125403109Y-107454822D01*
X125366946Y-107475057D01*
X125320277Y-107499515D01*
X125301022Y-107509248D01*
X125236004Y-107542217D01*
X125188654Y-107567643D01*
X125156219Y-107587612D01*
X125135946Y-107604210D01*
X125125082Y-107619524D01*
X125120875Y-107635640D01*
X125120400Y-107646143D01*
X125122042Y-107664670D01*
X125128831Y-107680904D01*
X125143566Y-107697035D01*
X125169044Y-107715251D01*
X125208061Y-107737739D01*
X125263414Y-107766689D01*
X125294903Y-107782662D01*
X125345087Y-107808570D01*
X125386704Y-107831167D01*
X125416242Y-107848458D01*
X125430189Y-107858450D01*
X125430770Y-107859809D01*
X125419793Y-107866261D01*
X125391290Y-107880708D01*
X125348244Y-107901703D01*
X125293638Y-107927797D01*
X125230454Y-107957546D01*
X125199071Y-107972180D01*
X125118078Y-108010250D01*
X125055756Y-108040905D01*
X125010071Y-108065737D01*
X124978989Y-108086337D01*
X124960478Y-108104298D01*
X124952504Y-108121210D01*
X124953034Y-108138665D01*
G37*
X124953034Y-108138665D02*
X124960035Y-108158255D01*
X124960377Y-108159010D01*
X124980678Y-108185613D01*
X125001561Y-108200270D01*
X125011352Y-108203138D01*
X125024361Y-108202996D01*
X125042895Y-108198961D01*
X125069257Y-108190146D01*
X125105752Y-108175669D01*
X125154687Y-108154645D01*
X125218365Y-108126188D01*
X125299093Y-108089415D01*
X125343216Y-108069175D01*
X125421985Y-108032625D01*
X125494423Y-107998315D01*
X125557880Y-107967552D01*
X125609708Y-107941648D01*
X125647259Y-107921910D01*
X125667884Y-107909650D01*
X125670733Y-107907224D01*
X125683302Y-107876183D01*
X125681619Y-107841121D01*
X125666332Y-107813000D01*
X125665089Y-107811854D01*
X125648154Y-107800668D01*
X125615170Y-107781904D01*
X125570380Y-107757875D01*
X125518032Y-107730897D01*
X125498742Y-107721201D01*
X125352150Y-107648014D01*
X125511393Y-107568240D01*
X125566415Y-107539767D01*
X125614132Y-107513350D01*
X125650893Y-107491148D01*
X125673044Y-107475319D01*
X125677741Y-107469954D01*
X125684102Y-107428257D01*
X125670733Y-107393849D01*
X125656446Y-107383728D01*
X125624692Y-107366214D01*
X125578597Y-107342735D01*
X125521285Y-107314720D01*
X125455880Y-107283599D01*
X125385507Y-107250799D01*
X125313291Y-107217750D01*
X125242355Y-107185881D01*
X125175825Y-107156619D01*
X125116826Y-107131395D01*
X125068481Y-107111636D01*
X125033915Y-107098772D01*
X125016253Y-107094231D01*
X125015613Y-107094277D01*
X124993388Y-107105326D01*
X124970753Y-107127410D01*
X124969768Y-107128710D01*
X124954425Y-107155853D01*
X124954574Y-107180958D01*
X124957466Y-107190368D01*
X124963718Y-107201834D01*
X124976014Y-107214010D01*
X124996908Y-107228357D01*
X125028949Y-107246336D01*
X125074688Y-107269407D01*
X125136677Y-107299030D01*
X125193898Y-107325745D01*
X125260226Y-107356480D01*
X125319874Y-107384021D01*
X125369725Y-107406938D01*
X125406664Y-107423798D01*
X125427573Y-107433173D01*
X125430845Y-107434540D01*
X125425497Y-107440689D01*
X125403109Y-107454822D01*
X125366946Y-107475057D01*
X125320277Y-107499515D01*
X125301022Y-107509248D01*
X125236004Y-107542217D01*
X125188654Y-107567643D01*
X125156219Y-107587612D01*
X125135946Y-107604210D01*
X125125082Y-107619524D01*
X125120875Y-107635640D01*
X125120400Y-107646143D01*
X125122042Y-107664670D01*
X125128831Y-107680904D01*
X125143566Y-107697035D01*
X125169044Y-107715251D01*
X125208061Y-107737739D01*
X125263414Y-107766689D01*
X125294903Y-107782662D01*
X125345087Y-107808570D01*
X125386704Y-107831167D01*
X125416242Y-107848458D01*
X125430189Y-107858450D01*
X125430770Y-107859809D01*
X125419793Y-107866261D01*
X125391290Y-107880708D01*
X125348244Y-107901703D01*
X125293638Y-107927797D01*
X125230454Y-107957546D01*
X125199071Y-107972180D01*
X125118078Y-108010250D01*
X125055756Y-108040905D01*
X125010071Y-108065737D01*
X124978989Y-108086337D01*
X124960478Y-108104298D01*
X124952504Y-108121210D01*
X124953034Y-108138665D01*
G36*
X124957877Y-108582614D02*
G01*
X124972647Y-108606327D01*
X124994227Y-108632978D01*
X125315773Y-108632978D01*
X125409830Y-108632893D01*
X125483932Y-108632529D01*
X125540704Y-108631724D01*
X125582768Y-108630313D01*
X125612748Y-108628133D01*
X125633267Y-108625021D01*
X125646949Y-108620814D01*
X125656416Y-108615348D01*
X125661082Y-108611472D01*
X125681575Y-108580034D01*
X125680739Y-108544233D01*
X125663264Y-108512873D01*
X125641684Y-108486222D01*
X124994227Y-108486222D01*
X124972647Y-108512873D01*
X124956949Y-108538594D01*
X124951067Y-108559600D01*
X124957877Y-108582614D01*
G37*
X124957877Y-108582614D02*
X124972647Y-108606327D01*
X124994227Y-108632978D01*
X125315773Y-108632978D01*
X125409830Y-108632893D01*
X125483932Y-108632529D01*
X125540704Y-108631724D01*
X125582768Y-108630313D01*
X125612748Y-108628133D01*
X125633267Y-108625021D01*
X125646949Y-108620814D01*
X125656416Y-108615348D01*
X125661082Y-108611472D01*
X125681575Y-108580034D01*
X125680739Y-108544233D01*
X125663264Y-108512873D01*
X125641684Y-108486222D01*
X124994227Y-108486222D01*
X124972647Y-108512873D01*
X124956949Y-108538594D01*
X124951067Y-108559600D01*
X124957877Y-108582614D01*
G36*
X124951163Y-109357065D02*
G01*
X124951542Y-109435772D01*
X124952333Y-109496863D01*
X124953670Y-109542817D01*
X124955683Y-109576114D01*
X124958506Y-109599236D01*
X124962269Y-109614662D01*
X124967105Y-109624871D01*
X124970822Y-109629813D01*
X125003358Y-109655457D01*
X125037138Y-109658559D01*
X125067826Y-109642711D01*
X125080089Y-109632348D01*
X125088450Y-109621196D01*
X125093657Y-109605035D01*
X125096457Y-109579642D01*
X125097596Y-109540798D01*
X125097821Y-109484280D01*
X125097822Y-109473180D01*
X125097822Y-109327244D01*
X125368756Y-109327244D01*
X125454154Y-109327148D01*
X125519864Y-109326711D01*
X125568774Y-109325712D01*
X125603773Y-109323928D01*
X125627749Y-109321137D01*
X125643593Y-109317117D01*
X125654191Y-109311645D01*
X125662267Y-109304666D01*
X125682112Y-109271734D01*
X125680548Y-109237354D01*
X125657906Y-109206176D01*
X125655100Y-109203886D01*
X125644492Y-109196429D01*
X125632081Y-109190747D01*
X125614850Y-109186601D01*
X125589784Y-109183750D01*
X125553867Y-109181954D01*
X125504083Y-109180972D01*
X125437417Y-109180564D01*
X125361589Y-109180489D01*
X125097822Y-109180489D01*
X125097822Y-109041127D01*
X125097418Y-108981322D01*
X125095840Y-108939918D01*
X125092547Y-108912748D01*
X125086992Y-108895646D01*
X125078631Y-108884443D01*
X125077178Y-108883083D01*
X125043939Y-108866725D01*
X125006362Y-108868172D01*
X124973645Y-108886978D01*
X124967298Y-108894250D01*
X124962266Y-108903627D01*
X124958396Y-108917609D01*
X124955537Y-108938696D01*
X124953535Y-108969389D01*
X124952239Y-109012189D01*
X124951498Y-109069595D01*
X124951158Y-109144110D01*
X124951068Y-109238233D01*
X124951067Y-109258260D01*
X124951163Y-109357065D01*
G37*
X124951163Y-109357065D02*
X124951542Y-109435772D01*
X124952333Y-109496863D01*
X124953670Y-109542817D01*
X124955683Y-109576114D01*
X124958506Y-109599236D01*
X124962269Y-109614662D01*
X124967105Y-109624871D01*
X124970822Y-109629813D01*
X125003358Y-109655457D01*
X125037138Y-109658559D01*
X125067826Y-109642711D01*
X125080089Y-109632348D01*
X125088450Y-109621196D01*
X125093657Y-109605035D01*
X125096457Y-109579642D01*
X125097596Y-109540798D01*
X125097821Y-109484280D01*
X125097822Y-109473180D01*
X125097822Y-109327244D01*
X125368756Y-109327244D01*
X125454154Y-109327148D01*
X125519864Y-109326711D01*
X125568774Y-109325712D01*
X125603773Y-109323928D01*
X125627749Y-109321137D01*
X125643593Y-109317117D01*
X125654191Y-109311645D01*
X125662267Y-109304666D01*
X125682112Y-109271734D01*
X125680548Y-109237354D01*
X125657906Y-109206176D01*
X125655100Y-109203886D01*
X125644492Y-109196429D01*
X125632081Y-109190747D01*
X125614850Y-109186601D01*
X125589784Y-109183750D01*
X125553867Y-109181954D01*
X125504083Y-109180972D01*
X125437417Y-109180564D01*
X125361589Y-109180489D01*
X125097822Y-109180489D01*
X125097822Y-109041127D01*
X125097418Y-108981322D01*
X125095840Y-108939918D01*
X125092547Y-108912748D01*
X125086992Y-108895646D01*
X125078631Y-108884443D01*
X125077178Y-108883083D01*
X125043939Y-108866725D01*
X125006362Y-108868172D01*
X124973645Y-108886978D01*
X124967298Y-108894250D01*
X124962266Y-108903627D01*
X124958396Y-108917609D01*
X124955537Y-108938696D01*
X124953535Y-108969389D01*
X124952239Y-109012189D01*
X124951498Y-109069595D01*
X124951158Y-109144110D01*
X124951068Y-109238233D01*
X124951067Y-109258260D01*
X124951163Y-109357065D01*
G36*
X124956533Y-110622823D02*
G01*
X124978776Y-110654202D01*
X125006485Y-110681911D01*
X125315920Y-110681911D01*
X125407799Y-110681838D01*
X125479840Y-110681495D01*
X125534780Y-110680692D01*
X125575360Y-110679241D01*
X125604317Y-110676952D01*
X125624391Y-110673636D01*
X125638321Y-110669105D01*
X125648845Y-110663169D01*
X125655100Y-110658514D01*
X125679673Y-110627783D01*
X125682341Y-110592496D01*
X125667271Y-110560245D01*
X125658374Y-110549588D01*
X125646557Y-110542464D01*
X125627526Y-110538167D01*
X125596992Y-110535991D01*
X125550662Y-110535228D01*
X125514871Y-110535155D01*
X125380045Y-110535155D01*
X125380045Y-110038444D01*
X125502700Y-110038444D01*
X125558787Y-110037931D01*
X125597333Y-110035876D01*
X125623361Y-110031508D01*
X125641897Y-110024056D01*
X125655100Y-110015047D01*
X125679604Y-109984144D01*
X125682506Y-109949196D01*
X125665089Y-109915738D01*
X125655959Y-109906604D01*
X125643855Y-109900152D01*
X125625001Y-109895897D01*
X125595620Y-109893352D01*
X125551937Y-109892029D01*
X125490175Y-109891443D01*
X125476000Y-109891375D01*
X125359631Y-109890891D01*
X125263727Y-109890641D01*
X125186177Y-109890723D01*
X125124869Y-109891231D01*
X125077690Y-109892262D01*
X125042530Y-109893913D01*
X125017276Y-109896279D01*
X124999817Y-109899457D01*
X124988041Y-109903544D01*
X124979835Y-109908634D01*
X124973645Y-109914266D01*
X124953844Y-109946128D01*
X124956533Y-109979357D01*
X124978776Y-110010735D01*
X124993126Y-110023433D01*
X125008978Y-110031526D01*
X125031554Y-110036042D01*
X125066078Y-110038006D01*
X125117776Y-110038444D01*
X125233289Y-110038444D01*
X125233289Y-110535155D01*
X125114756Y-110535155D01*
X125060148Y-110535662D01*
X125023275Y-110537698D01*
X124999307Y-110542035D01*
X124983415Y-110549447D01*
X124973645Y-110557733D01*
X124953844Y-110589594D01*
X124956533Y-110622823D01*
G37*
X124956533Y-110622823D02*
X124978776Y-110654202D01*
X125006485Y-110681911D01*
X125315920Y-110681911D01*
X125407799Y-110681838D01*
X125479840Y-110681495D01*
X125534780Y-110680692D01*
X125575360Y-110679241D01*
X125604317Y-110676952D01*
X125624391Y-110673636D01*
X125638321Y-110669105D01*
X125648845Y-110663169D01*
X125655100Y-110658514D01*
X125679673Y-110627783D01*
X125682341Y-110592496D01*
X125667271Y-110560245D01*
X125658374Y-110549588D01*
X125646557Y-110542464D01*
X125627526Y-110538167D01*
X125596992Y-110535991D01*
X125550662Y-110535228D01*
X125514871Y-110535155D01*
X125380045Y-110535155D01*
X125380045Y-110038444D01*
X125502700Y-110038444D01*
X125558787Y-110037931D01*
X125597333Y-110035876D01*
X125623361Y-110031508D01*
X125641897Y-110024056D01*
X125655100Y-110015047D01*
X125679604Y-109984144D01*
X125682506Y-109949196D01*
X125665089Y-109915738D01*
X125655959Y-109906604D01*
X125643855Y-109900152D01*
X125625001Y-109895897D01*
X125595620Y-109893352D01*
X125551937Y-109892029D01*
X125490175Y-109891443D01*
X125476000Y-109891375D01*
X125359631Y-109890891D01*
X125263727Y-109890641D01*
X125186177Y-109890723D01*
X125124869Y-109891231D01*
X125077690Y-109892262D01*
X125042530Y-109893913D01*
X125017276Y-109896279D01*
X124999817Y-109899457D01*
X124988041Y-109903544D01*
X124979835Y-109908634D01*
X124973645Y-109914266D01*
X124953844Y-109946128D01*
X124956533Y-109979357D01*
X124978776Y-110010735D01*
X124993126Y-110023433D01*
X125008978Y-110031526D01*
X125031554Y-110036042D01*
X125066078Y-110038006D01*
X125117776Y-110038444D01*
X125233289Y-110038444D01*
X125233289Y-110535155D01*
X125114756Y-110535155D01*
X125060148Y-110535662D01*
X125023275Y-110537698D01*
X124999307Y-110542035D01*
X124983415Y-110549447D01*
X124973645Y-110557733D01*
X124953844Y-110589594D01*
X124956533Y-110622823D01*
%TD*%
M02*
