M48
; DRILL file {KiCad (5.1.6)-1} date 06/18/20 13:16:18
; FORMAT={-:-/ absolute / inch / decimal}
; #@! TF.CreationDate,2020-06-18T13:16:18+05:30
; #@! TF.GenerationSoftware,Kicad,Pcbnew,(5.1.6)-1
; #@! TF.FileFunction,Plated,1,2,PTH
FMAT,2
INCH
T1C0.0315
T2C0.0354
T3C0.0394
T4C0.0433
T5C0.0630
%
G90
G05
T1
X5.03Y-3.13
X5.1284Y-3.13
X5.06Y-3.38
X5.06Y-3.68
X5.28Y-4.62
X5.28Y-4.92
T2
X5.24Y-3.53
X5.34Y-3.53
X5.24Y-4.39
X5.34Y-4.39
X5.3Y-3.8569
X5.3Y-3.9553
X5.3Y-4.0537
T3
X4.62Y-3.2
X4.8169Y-3.2
X5.51Y-3.07
X5.51Y-3.17
X5.61Y-3.07
X5.61Y-3.17
X5.51Y-4.84
X5.51Y-4.94
X5.61Y-4.84
X5.61Y-4.94
T4
X4.6182Y-4.198
X5.0182Y-4.198
X4.6182Y-3.859
X5.0182Y-3.859
X4.61Y-3.59
X4.71Y-3.59
X4.81Y-3.59
X4.6182Y-4.0285
X5.0182Y-4.0285
X4.6182Y-4.3676
X5.0182Y-4.3676
T5
X4.8438Y-4.76
X4.9619Y-4.945
X5.08Y-4.76
T0
M30
