%TF.GenerationSoftware,KiCad,Pcbnew,(5.1.6)-1*%
%TF.CreationDate,2020-06-18T13:16:41+05:30*%
%TF.ProjectId,breadboard powersupply,62726561-6462-46f6-9172-6420706f7765,V1*%
%TF.SameCoordinates,Original*%
%TF.FileFunction,Soldermask,Top*%
%TF.FilePolarity,Negative*%
%FSLAX46Y46*%
G04 Gerber Fmt 4.6, Leading zero omitted, Abs format (unit mm)*
G04 Created by KiCad (PCBNEW (5.1.6)-1) date 2020-06-18 13:16:41*
%MOMM*%
%LPD*%
G01*
G04 APERTURE LIST*
%ADD10R,2.100000X2.100000*%
%ADD11C,2.100000*%
%ADD12R,1.700000X1.700000*%
%ADD13C,1.700000*%
%ADD14R,2.300000X2.300000*%
%ADD15O,2.300000X2.300000*%
%ADD16R,1.900000X1.900000*%
%ADD17C,1.900000*%
%ADD18R,2.700000X2.700000*%
%ADD19C,2.700000*%
%ADD20R,1.800000X1.800000*%
%ADD21O,1.800000X1.800000*%
%ADD22O,1.700000X1.700000*%
%ADD23R,2.000000X2.000000*%
%ADD24C,2.000000*%
%ADD25R,2.005000X2.100000*%
%ADD26O,2.005000X2.100000*%
G04 APERTURE END LIST*
D10*
%TO.C,C1*%
X117348000Y-81280000D03*
D11*
X122348000Y-81280000D03*
%TD*%
D12*
%TO.C,C2*%
X127762000Y-79502000D03*
D13*
X130262000Y-79502000D03*
%TD*%
D14*
%TO.C,D1*%
X117303001Y-106630001D03*
D15*
X127463001Y-106630001D03*
%TD*%
D14*
%TO.C,D2*%
X117303001Y-98018001D03*
D15*
X127463001Y-98018001D03*
%TD*%
%TO.C,D3*%
X127463001Y-110936001D03*
D14*
X117303001Y-110936001D03*
%TD*%
D15*
%TO.C,D4*%
X127463001Y-102324001D03*
D14*
X117303001Y-102324001D03*
%TD*%
D16*
%TO.C,D5*%
X133096000Y-111506000D03*
D17*
X135636000Y-111506000D03*
%TD*%
%TO.C,D6*%
X135636000Y-89662000D03*
D16*
X133096000Y-89662000D03*
%TD*%
D18*
%TO.C,J1*%
X129032000Y-120904000D03*
D19*
X123032000Y-120904000D03*
X126032000Y-125604000D03*
%TD*%
D20*
%TO.C,J2*%
X139954000Y-77978000D03*
D21*
X142494000Y-77978000D03*
X139954000Y-80518000D03*
X142494000Y-80518000D03*
%TD*%
D20*
%TO.C,J3*%
X139954000Y-122936000D03*
D21*
X142494000Y-122936000D03*
X139954000Y-125476000D03*
X142494000Y-125476000D03*
%TD*%
D13*
%TO.C,R1*%
X134112000Y-124968000D03*
D22*
X134112000Y-117348000D03*
%TD*%
%TO.C,R2*%
X128524000Y-85852000D03*
D13*
X128524000Y-93472000D03*
%TD*%
D23*
%TO.C,SW1*%
X134620000Y-102964000D03*
D24*
X134620000Y-100464000D03*
X134620000Y-97964000D03*
%TD*%
D25*
%TO.C,U1*%
X117094000Y-91186000D03*
D26*
X119634000Y-91186000D03*
X122174000Y-91186000D03*
%TD*%
M02*
